{"asset":{"version":"2.0","generator":"GLTFExporter"},"scenes":[{"nodes":[0],"name":"AuxScene"}],"scene":0,"nodes":[{"mesh":0}],"bufferViews":[{"buffer":0,"byteOffset":0,"byteLength":15288,"target":34962,"byteStride":12},{"buffer":0,"byteOffset":15288,"byteLength":15288,"target":34962,"byteStride":12},{"buffer":0,"byteOffset":30576,"byteLength":20384,"target":34962,"byteStride":16},{"buffer":0,"byteOffset":50960,"byteLength":10192,"target":34962,"byteStride":8},{"buffer":0,"byteOffset":61152,"byteLength":10192,"target":34962,"byteStride":8},{"buffer":0,"byteOffset":71344,"byteLength":20664,"target":34963}],"buffers":[{"byteLength":92008,"uri":"data:application/octet-stream;base64,"}],"accessors":[{"bufferView":0,"componentType":5126,"count":1274,"max":[0.005443767178803682,0.019243137910962105,-0.0007758177816867828],"min":[-0.005142646841704845,-0.01956332102417946,-0.007781530264765024],"type":"VEC3"},{"bufferView":1,"componentType":5126,"count":1274,"max":[0.9998332262039185,0.9998555183410645,0.9997420907020569],"min":[-0.9999862909317017,-0.9971470236778259,-0.9999758005142212],"type":"VEC3"},{"bufferView":2,"componentType":5126,"count":1274,"max":[0.9999445676803589,0.9999970197677612,0.9999001026153564,1],"min":[-0.9999988079071045,-0.999982476234436,-0.9997977614402771,1],"type":"VEC4"},{"bufferView":3,"componentType":5126,"count":1274,"max":[0.9932156801223755,0.9847837686538696],"min":[0.006784264463931322,0.006784264463931322],"type":"VEC2"},{"bufferView":4,"componentType":5126,"count":1274,"max":[0.9599608778953552,0.9153745174407959],"min":[0.4296875,0.38963380455970764],"type":"VEC2"},{"bufferView":5,"componentType":5125,"count":5166,"max":[1273],"min":[0],"type":"SCALAR"}],"materials":[{"pbrMetallicRoughness":{"metallicFactor":0,"roughnessFactor":0.9},"extensions":{"KHR_materials_unlit":{}}}],"meshes":[{"primitives":[{"mode":4,"attributes":{"POSITION":0,"NORMAL":1,"TANGENT":2,"TEXCOORD_0":3,"TEXCOORD_1":4},"indices":5,"material":0}]}],"extensionsUsed":["KHR_materials_unlit"]}