{"asset":{"version":"2.0","generator":"GLTFExporter"},"scenes":[{"nodes":[0],"name":"AuxScene"}],"scene":0,"nodes":[{"mesh":0}],"bufferViews":[{"buffer":0,"byteOffset":0,"byteLength":588,"target":34962,"byteStride":12},{"buffer":0,"byteOffset":588,"byteLength":588,"target":34962,"byteStride":12},{"buffer":0,"byteOffset":1176,"byteLength":784,"target":34962,"byteStride":16},{"buffer":0,"byteOffset":1960,"byteLength":392,"target":34962,"byteStride":8},{"buffer":0,"byteOffset":2352,"byteLength":392,"target":34962,"byteStride":8},{"buffer":0,"byteOffset":2744,"byteLength":384,"target":34963}],"buffers":[{"byteLength":3128,"uri":"data:application/octet-stream;base64,"}],"accessors":[{"bufferView":0,"componentType":5126,"count":49,"max":[0.009848288260400295,0.00019999999494757503,0.010499401018023491],"min":[-0.009848288260400295,-0.0007220015395432711,-0.011334573850035667],"type":"VEC3"},{"bufferView":1,"componentType":5126,"count":49,"max":[1,0.000001498053279647138,1],"min":[-1,-1,-1],"type":"VEC3"},{"bufferView":2,"componentType":5126,"count":49,"max":[0,1,0,1],"min":[-1,-1,0,1],"type":"VEC4"},{"bufferView":3,"componentType":5126,"count":49,"max":[0.911848247051239,0.9999135732650757],"min":[0.00008643190085422248,0.00008643190085422248],"type":"VEC2"},{"bufferView":4,"componentType":5126,"count":49,"max":[0.7401283383369446,0.37365564703941345],"min":[0.6629799008369446,0.3207872211933136],"type":"VEC2"},{"bufferView":5,"componentType":5125,"count":96,"max":[48],"min":[0],"type":"SCALAR"}],"materials":[{"pbrMetallicRoughness":{"metallicFactor":0,"roughnessFactor":0.9},"extensions":{"KHR_materials_unlit":{}}}],"meshes":[{"primitives":[{"mode":4,"attributes":{"POSITION":0,"NORMAL":1,"TANGENT":2,"TEXCOORD_0":3,"TEXCOORD_1":4},"indices":5,"material":0}]}],"extensionsUsed":["KHR_materials_unlit"]}