{"asset":{"version":"2.0","generator":"GLTFExporter"},"scenes":[{"nodes":[0],"name":"AuxScene"}],"scene":0,"nodes":[{"mesh":0}],"bufferViews":[{"buffer":0,"byteOffset":0,"byteLength":3072,"target":34962,"byteStride":12},{"buffer":0,"byteOffset":3072,"byteLength":3072,"target":34962,"byteStride":12},{"buffer":0,"byteOffset":6144,"byteLength":4096,"target":34962,"byteStride":16},{"buffer":0,"byteOffset":10240,"byteLength":2048,"target":34962,"byteStride":8},{"buffer":0,"byteOffset":12288,"byteLength":2048,"target":34962,"byteStride":8},{"buffer":0,"byteOffset":14336,"byteLength":1440,"target":34963}],"buffers":[{"byteLength":15776,"uri":"data:application/octet-stream;base64,"}],"accessors":[{"bufferView":0,"componentType":5126,"count":256,"max":[0.0011328860418871045,-0.0001868502440629527,0.0021918879356235266],"min":[-0.0011328860418871045,-0.0005266435910016298,-0.0021918879356235266],"type":"VEC3"},{"bufferView":1,"componentType":5126,"count":256,"max":[1,1,1],"min":[-1,-1,-1],"type":"VEC3"},{"bufferView":2,"componentType":5126,"count":256,"max":[1,0.9960727691650391,1,1],"min":[-1,-0.9960724115371704,-1,1],"type":"VEC4"},{"bufferView":3,"componentType":5126,"count":256,"max":[0.7929147481918335,0.9998075366020203],"min":[0.00019244744908064604,0.00019244744908064604],"type":"VEC2"},{"bufferView":4,"componentType":5126,"count":256,"max":[0.8967686295509338,0.07126175612211227],"min":[0.8818359375,0.053683627396821976],"type":"VEC2"},{"bufferView":5,"componentType":5125,"count":360,"max":[255],"min":[0],"type":"SCALAR"}],"materials":[{"pbrMetallicRoughness":{"metallicFactor":0,"roughnessFactor":0.9},"extensions":{"KHR_materials_unlit":{}}}],"meshes":[{"primitives":[{"mode":4,"attributes":{"POSITION":0,"NORMAL":1,"TANGENT":2,"TEXCOORD_0":3,"TEXCOORD_1":4},"indices":5,"material":0}]}],"extensionsUsed":["KHR_materials_unlit"]}