{"asset":{"version":"2.0","generator":"GLTFExporter"},"scenes":[{"nodes":[0]}],"scene":0,"nodes":[{"mesh":0}],"bufferViews":[{"buffer":0,"byteOffset":0,"byteLength":1896,"target":34962,"byteStride":12},{"buffer":0,"byteOffset":1896,"byteLength":1896,"target":34962,"byteStride":12},{"buffer":0,"byteOffset":3792,"byteLength":2528,"target":34962,"byteStride":16},{"buffer":0,"byteOffset":6320,"byteLength":1264,"target":34962,"byteStride":8},{"buffer":0,"byteOffset":7584,"byteLength":1264,"target":34962,"byteStride":8},{"buffer":0,"byteOffset":8848,"byteLength":1536,"target":34963}],"buffers":[{"byteLength":10384,"uri":"data:application/octet-stream;base64,"}],"accessors":[{"bufferView":0,"componentType":5126,"count":158,"max":[0.008795342408120632,0.00406104838475585,-0.00015043283929117024],"min":[-0.008677404373884201,-0.004161420278251171,-0.007285360712558031],"type":"VEC3"},{"bufferView":1,"componentType":5126,"count":158,"max":[1,1,1],"min":[-1,-1,-0.7668823003768921],"type":"VEC3"},{"bufferView":2,"componentType":5126,"count":158,"max":[0.7450458407402039,1,0.8839613795280457,1],"min":[-1,-1,-0.7346426248550415,1],"type":"VEC4"},{"bufferView":3,"componentType":5126,"count":158,"max":[0.9930312037467957,0.9859447479248047],"min":[0.006968823727220297,0.006968823727220297],"type":"VEC2"},{"bufferView":4,"componentType":5126,"count":158,"max":[0.9936060905456543,0.2984429597854614],"min":[0.8949732780456543,0.20051898062229156],"type":"VEC2"},{"bufferView":5,"componentType":5125,"count":384,"max":[157],"min":[0],"type":"SCALAR"}],"materials":[{"pbrMetallicRoughness":{"metallicFactor":0,"roughnessFactor":0.9},"extensions":{"KHR_materials_unlit":{}}}],"meshes":[{"primitives":[{"mode":4,"attributes":{"POSITION":0,"NORMAL":1,"TANGENT":2,"TEXCOORD_0":3,"TEXCOORD_1":4},"indices":5,"material":0}]}],"extensionsUsed":["KHR_materials_unlit"]}