{"asset":{"version":"2.0","generator":"GLTFExporter"},"scenes":[{"nodes":[0],"name":"AuxScene"}],"scene":0,"nodes":[{"mesh":0}],"bufferViews":[{"buffer":0,"byteOffset":0,"byteLength":1836,"target":34962,"byteStride":12},{"buffer":0,"byteOffset":1836,"byteLength":1836,"target":34962,"byteStride":12},{"buffer":0,"byteOffset":3672,"byteLength":2448,"target":34962,"byteStride":16},{"buffer":0,"byteOffset":6120,"byteLength":1224,"target":34962,"byteStride":8},{"buffer":0,"byteOffset":7344,"byteLength":1224,"target":34962,"byteStride":8},{"buffer":0,"byteOffset":8568,"byteLength":1236,"target":34963}],"buffers":[{"byteLength":9804,"uri":"data:application/octet-stream;base64,"}],"accessors":[{"bufferView":0,"componentType":5126,"count":153,"max":[18.360755920410156,4.528334617614746,8.535893440246582],"min":[4.614362716674805,-0.4697904586791992,-9.049906730651855],"type":"VEC3"},{"bufferView":1,"componentType":5126,"count":153,"max":[1,1,1],"min":[-1,-1,-1],"type":"VEC3"},{"bufferView":2,"componentType":5126,"count":153,"max":[1,1,1,1],"min":[-1,-1,-1,1],"type":"VEC4"},{"bufferView":3,"componentType":5126,"count":153,"max":[1,0.9567917585372925],"min":[0,0],"type":"VEC2"},{"bufferView":4,"componentType":5126,"count":153,"max":[0.44685813784599304,0.43375200033187866],"min":[0.11092063039541245,0.10647743195295334],"type":"VEC2"},{"bufferView":5,"componentType":5125,"count":309,"max":[152],"min":[0],"type":"SCALAR"}],"materials":[{"pbrMetallicRoughness":{"metallicFactor":0,"roughnessFactor":0.9},"extensions":{"KHR_materials_unlit":{}}}],"meshes":[{"primitives":[{"mode":4,"attributes":{"POSITION":0,"NORMAL":1,"TANGENT":2,"TEXCOORD_0":3,"TEXCOORD_1":4},"indices":5,"material":0}]}],"extensionsUsed":["KHR_materials_unlit"]}