{"asset":{"version":"2.0","generator":"GLTFExporter"},"scenes":[{"nodes":[0],"name":"AuxScene"}],"scene":0,"nodes":[{"mesh":0}],"bufferViews":[{"buffer":0,"byteOffset":0,"byteLength":2304,"target":34962,"byteStride":12},{"buffer":0,"byteOffset":2304,"byteLength":2304,"target":34962,"byteStride":12},{"buffer":0,"byteOffset":4608,"byteLength":3072,"target":34962,"byteStride":16},{"buffer":0,"byteOffset":7680,"byteLength":1536,"target":34962,"byteStride":8},{"buffer":0,"byteOffset":9216,"byteLength":1536,"target":34962,"byteStride":8},{"buffer":0,"byteOffset":10752,"byteLength":2784,"target":34963}],"buffers":[{"byteLength":13536,"uri":"data:application/octet-stream;base64,"}],"accessors":[{"bufferView":0,"componentType":5126,"count":192,"max":[0.3728348910808563,0.3367733955383301,0.005379211623221636],"min":[-0.37042248249053955,-0.4014135003089905,-0.03989788517355919],"type":"VEC3"},{"bufferView":1,"componentType":5126,"count":192,"max":[0.9999380111694336,0.9999380111694336,1],"min":[-0.9999380111694336,-0.9999380111694336,-0.011139585636556149],"type":"VEC3"},{"bufferView":2,"componentType":5126,"count":192,"max":[0.18635842204093933,0.8266516327857971,0.9953668117523193,1],"min":[-0.9682515263557434,-0.7071092128753662,-0.9956062436103821,1],"type":"VEC4"},{"bufferView":3,"componentType":5126,"count":192,"max":[0.9997614026069641,0.8074208498001099],"min":[0.0002386002306593582,0.0002386002306593582],"type":"VEC2"},{"bufferView":4,"componentType":5126,"count":192,"max":[0.8798828125,0.06709051132202148],"min":[0.86328125,0.053683627396821976],"type":"VEC2"},{"bufferView":5,"componentType":5125,"count":696,"max":[191],"min":[0],"type":"SCALAR"}],"materials":[{"pbrMetallicRoughness":{"metallicFactor":0,"roughnessFactor":0.9},"extensions":{"KHR_materials_unlit":{}}}],"meshes":[{"primitives":[{"mode":4,"attributes":{"POSITION":0,"NORMAL":1,"TANGENT":2,"TEXCOORD_0":3,"TEXCOORD_1":4},"indices":5,"material":0}]}],"extensionsUsed":["KHR_materials_unlit"]}