{"asset":{"version":"2.0","generator":"GLTFExporter"},"scenes":[{"nodes":[0],"name":"AuxScene"}],"scene":0,"nodes":[{"mesh":0}],"bufferViews":[{"buffer":0,"byteOffset":0,"byteLength":30876,"target":34962,"byteStride":12},{"buffer":0,"byteOffset":30876,"byteLength":30876,"target":34962,"byteStride":12},{"buffer":0,"byteOffset":61752,"byteLength":41168,"target":34962,"byteStride":16},{"buffer":0,"byteOffset":102920,"byteLength":20584,"target":34962,"byteStride":8},{"buffer":0,"byteOffset":123504,"byteLength":20584,"target":34962,"byteStride":8},{"buffer":0,"byteOffset":144088,"byteLength":17664,"target":34963}],"buffers":[{"byteLength":161752,"uri":"data:application/octet-stream;base64,"}],"accessors":[{"bufferView":0,"componentType":5126,"count":2573,"max":[5.244733810424805,2.877153158187866,4.424424171447754],"min":[-4.831501483917236,0.031093595549464226,-2.646989345550537],"type":"VEC3"},{"bufferView":1,"componentType":5126,"count":2573,"max":[1,1,1],"min":[-1,-1,-1],"type":"VEC3"},{"bufferView":2,"componentType":5126,"count":2573,"max":[1,1,1,1],"min":[-1,-1,-1,1],"type":"VEC4"},{"bufferView":3,"componentType":5126,"count":2573,"max":[0.9950257539749146,0.9924231767654419],"min":[0.004974280949681997,0.004974280949681997],"type":"VEC2"},{"bufferView":4,"componentType":5126,"count":2573,"max":[0.333984375,0.7221865653991699],"min":[0,0.38963380455970764],"type":"VEC2"},{"bufferView":5,"componentType":5125,"count":4416,"max":[2572],"min":[0],"type":"SCALAR"}],"materials":[{"pbrMetallicRoughness":{"metallicFactor":0,"roughnessFactor":0.9},"extensions":{"KHR_materials_unlit":{}}}],"meshes":[{"primitives":[{"mode":4,"attributes":{"POSITION":0,"NORMAL":1,"TANGENT":2,"TEXCOORD_0":3,"TEXCOORD_1":4},"indices":5,"material":0}]}],"extensionsUsed":["KHR_materials_unlit"]}