{"asset":{"version":"2.0","generator":"GLTFExporter"},"scenes":[{"nodes":[0],"name":"AuxScene"}],"scene":0,"nodes":[{"mesh":0}],"bufferViews":[{"buffer":0,"byteOffset":0,"byteLength":576,"target":34962,"byteStride":12},{"buffer":0,"byteOffset":576,"byteLength":576,"target":34962,"byteStride":12},{"buffer":0,"byteOffset":1152,"byteLength":768,"target":34962,"byteStride":16},{"buffer":0,"byteOffset":1920,"byteLength":384,"target":34962,"byteStride":8},{"buffer":0,"byteOffset":2304,"byteLength":384,"target":34962,"byteStride":8},{"buffer":0,"byteOffset":2688,"byteLength":336,"target":34963}],"buffers":[{"byteLength":3024,"uri":"data:application/octet-stream;base64,"}],"accessors":[{"bufferView":0,"componentType":5126,"count":48,"max":[0.0065000019967556,0.0029042172245681286,0.024342922493815422],"min":[-0.006499997340142727,-0.007393073756247759,-0.024342931807041168],"type":"VEC3"},{"bufferView":1,"componentType":5126,"count":48,"max":[1,1,1],"min":[-1,-1,-1],"type":"VEC3"},{"bufferView":2,"componentType":5126,"count":48,"max":[1,1,0,1],"min":[-1,-1,0,1],"type":"VEC4"},{"bufferView":3,"componentType":5126,"count":48,"max":[0.9568482637405396,0.9857146739959717],"min":[0.014285269193351269,0.014285269193351269],"type":"VEC2"},{"bufferView":4,"componentType":5126,"count":48,"max":[0.10896750539541245,0.3168453872203827],"min":[-1.3820708466560916e-11,0.2045406997203827],"type":"VEC2"},{"bufferView":5,"componentType":5125,"count":84,"max":[47],"min":[0],"type":"SCALAR"}],"materials":[{"pbrMetallicRoughness":{"metallicFactor":0,"roughnessFactor":0.9},"extensions":{"KHR_materials_unlit":{}}}],"meshes":[{"primitives":[{"mode":4,"attributes":{"POSITION":0,"NORMAL":1,"TANGENT":2,"TEXCOORD_0":3,"TEXCOORD_1":4},"indices":5,"material":0}]}],"extensionsUsed":["KHR_materials_unlit"]}