{"asset":{"version":"2.0","generator":"GLTFExporter"},"scenes":[{"nodes":[0],"name":"AuxScene"}],"scene":0,"nodes":[{"mesh":0}],"bufferViews":[{"buffer":0,"byteOffset":0,"byteLength":35424,"target":34962,"byteStride":12},{"buffer":0,"byteOffset":35424,"byteLength":35424,"target":34962,"byteStride":12},{"buffer":0,"byteOffset":70848,"byteLength":47232,"target":34962,"byteStride":16},{"buffer":0,"byteOffset":118080,"byteLength":23616,"target":34962,"byteStride":8},{"buffer":0,"byteOffset":141696,"byteLength":23616,"target":34962,"byteStride":8},{"buffer":0,"byteOffset":165312,"byteLength":29976,"target":34963}],"buffers":[{"byteLength":195288,"uri":"data:application/octet-stream;base64,"}],"accessors":[{"bufferView":0,"componentType":5126,"count":2952,"max":[-7.2948431968688965,2.033095598220825,2.1853113174438477],"min":[-7.570627212524414,1.3069677352905273,-0.8133111000061035],"type":"VEC3"},{"bufferView":1,"componentType":5126,"count":2952,"max":[1,1,1],"min":[-1,-1,-1],"type":"VEC3"},{"bufferView":2,"componentType":5126,"count":2952,"max":[1,1,1,1],"min":[-0.9999964833259583,-1,-1,1],"type":"VEC4"},{"bufferView":3,"componentType":5126,"count":2952,"max":[0.9989907145500183,0.9752801060676575],"min":[0.0010529836872592568,0.0010171401081606746],"type":"VEC2"},{"bufferView":4,"componentType":5126,"count":2952,"max":[0.6219492554664612,0.892578125],"min":[0.5010095834732056,0.771484375],"type":"VEC2"},{"bufferView":5,"componentType":5125,"count":7494,"max":[2951],"min":[0],"type":"SCALAR"}],"materials":[{"pbrMetallicRoughness":{"metallicFactor":0,"roughnessFactor":0.9},"extensions":{"KHR_materials_unlit":{}}}],"meshes":[{"primitives":[{"mode":4,"attributes":{"POSITION":0,"NORMAL":1,"TANGENT":2,"TEXCOORD_0":3,"TEXCOORD_1":4},"indices":5,"material":0}]}],"extensionsUsed":["KHR_materials_unlit"]}