{"asset":{"version":"2.0","generator":"GLTFExporter"},"scenes":[{"nodes":[0],"name":"AuxScene"}],"scene":0,"nodes":[{"mesh":0}],"bufferViews":[{"buffer":0,"byteOffset":0,"byteLength":6516,"target":34962,"byteStride":12},{"buffer":0,"byteOffset":6516,"byteLength":6516,"target":34962,"byteStride":12},{"buffer":0,"byteOffset":13032,"byteLength":8688,"target":34962,"byteStride":16},{"buffer":0,"byteOffset":21720,"byteLength":4344,"target":34962,"byteStride":8},{"buffer":0,"byteOffset":26064,"byteLength":4344,"target":34962,"byteStride":8},{"buffer":0,"byteOffset":30408,"byteLength":8280,"target":34963}],"buffers":[{"byteLength":38688,"uri":"data:application/octet-stream;base64,"}],"accessors":[{"bufferView":0,"componentType":5126,"count":543,"max":[0.453803688287735,0.3947230577468872,0.00008455276110908017],"min":[-0.23119628429412842,-0.3947007656097412,-0.24991543591022491],"type":"VEC3"},{"bufferView":1,"componentType":5126,"count":543,"max":[0.9995899796485901,0.9999568462371826,1],"min":[-1,-0.9999572038650513,-1],"type":"VEC3"},{"bufferView":2,"componentType":5126,"count":543,"max":[0.9997562766075134,0.9956947565078735,0.911170244216919,1],"min":[-0.9940150380134583,-0.9997734427452087,-0.9999761581420898,1],"type":"VEC4"},{"bufferView":3,"componentType":5126,"count":543,"max":[0.9924468994140625,0.9925197958946228],"min":[0.00748022785410285,0.00748022785410285],"type":"VEC2"},{"bufferView":4,"componentType":5126,"count":543,"max":[0.9525267481803894,0.06166432425379753],"min":[0.939832329750061,0.04896901175379753],"type":"VEC2"},{"bufferView":5,"componentType":5125,"count":2070,"max":[542],"min":[0],"type":"SCALAR"}],"materials":[{"pbrMetallicRoughness":{"metallicFactor":0,"roughnessFactor":0.9},"extensions":{"KHR_materials_unlit":{}}}],"meshes":[{"primitives":[{"mode":4,"attributes":{"POSITION":0,"NORMAL":1,"TANGENT":2,"TEXCOORD_0":3,"TEXCOORD_1":4},"indices":5,"material":0}]}],"extensionsUsed":["KHR_materials_unlit"]}