{"asset":{"version":"2.0","generator":"GLTFExporter"},"scenes":[{"nodes":[0],"name":"AuxScene"}],"scene":0,"nodes":[{"mesh":0}],"bufferViews":[{"buffer":0,"byteOffset":0,"byteLength":4320,"target":34962,"byteStride":12},{"buffer":0,"byteOffset":4320,"byteLength":4320,"target":34962,"byteStride":12},{"buffer":0,"byteOffset":8640,"byteLength":5760,"target":34962,"byteStride":16},{"buffer":0,"byteOffset":14400,"byteLength":2880,"target":34962,"byteStride":8},{"buffer":0,"byteOffset":17280,"byteLength":2880,"target":34962,"byteStride":8},{"buffer":0,"byteOffset":20160,"byteLength":2160,"target":34963}],"buffers":[{"byteLength":22320,"uri":"data:application/octet-stream;base64,"}],"accessors":[{"bufferView":0,"componentType":5126,"count":360,"max":[19.883440017700195,1.411561131477356,19.17951011657715],"min":[-3.52541446685791,-0.07656725496053696,5.576104640960693],"type":"VEC3"},{"bufferView":1,"componentType":5126,"count":360,"max":[1,1,1],"min":[-1,-1,-1],"type":"VEC3"},{"bufferView":2,"componentType":5126,"count":360,"max":[1,1,1,1],"min":[-1,-1,-1,1],"type":"VEC4"},{"bufferView":3,"componentType":5126,"count":360,"max":[0.9889323711395264,0.9297090768814087],"min":[0.011067649349570274,0.011067649349570274],"type":"VEC2"},{"bufferView":4,"componentType":5126,"count":360,"max":[0.41853782534599304,0.0557086206972599],"min":[0.30232688784599304,-2.201219762021367e-11],"type":"VEC2"},{"bufferView":5,"componentType":5125,"count":540,"max":[359],"min":[0],"type":"SCALAR"}],"materials":[{"pbrMetallicRoughness":{"metallicFactor":0,"roughnessFactor":0.9},"extensions":{"KHR_materials_unlit":{}}}],"meshes":[{"primitives":[{"mode":4,"attributes":{"POSITION":0,"NORMAL":1,"TANGENT":2,"TEXCOORD_0":3,"TEXCOORD_1":4},"indices":5,"material":0}]}],"extensionsUsed":["KHR_materials_unlit"]}