{"asset":{"version":"2.0","generator":"GLTFExporter"},"scenes":[{"nodes":[0],"name":"AuxScene"}],"scene":0,"nodes":[{"mesh":0}],"bufferViews":[{"buffer":0,"byteOffset":0,"byteLength":396,"target":34962,"byteStride":12},{"buffer":0,"byteOffset":396,"byteLength":396,"target":34962,"byteStride":12},{"buffer":0,"byteOffset":792,"byteLength":528,"target":34962,"byteStride":16},{"buffer":0,"byteOffset":1320,"byteLength":264,"target":34962,"byteStride":8},{"buffer":0,"byteOffset":1584,"byteLength":264,"target":34962,"byteStride":8},{"buffer":0,"byteOffset":1848,"byteLength":216,"target":34963}],"buffers":[{"byteLength":2064,"uri":"data:application/octet-stream;base64,"}],"accessors":[{"bufferView":0,"componentType":5126,"count":33,"max":[0.08574466407299042,-0.0002821069210767746,0.09295088797807693],"min":[-0.06447761505842209,-0.001037893001921475,-0.04322583228349686],"type":"VEC3"},{"bufferView":1,"componentType":5126,"count":33,"max":[1,1,1],"min":[-1,0,-1],"type":"VEC3"},{"bufferView":2,"componentType":5126,"count":33,"max":[0.03292454406619072,1,0,1],"min":[-1,-0.9996412992477417,-1,1],"type":"VEC4"},{"bufferView":3,"componentType":5126,"count":33,"max":[0.40867114067077637,0.9938125014305115],"min":[0.0061873942613601685,0.0061873942613601685],"type":"VEC2"},{"bufferView":4,"componentType":5126,"count":33,"max":[0.8610991835594177,0.38968053460121155],"min":[0.7456862926483154,0.10647743195295334],"type":"VEC2"},{"bufferView":5,"componentType":5125,"count":54,"max":[32],"min":[0],"type":"SCALAR"}],"materials":[{"pbrMetallicRoughness":{"metallicFactor":0,"roughnessFactor":0.9},"extensions":{"KHR_materials_unlit":{}}}],"meshes":[{"primitives":[{"mode":4,"attributes":{"POSITION":0,"NORMAL":1,"TANGENT":2,"TEXCOORD_0":3,"TEXCOORD_1":4},"indices":5,"material":0}]}],"extensionsUsed":["KHR_materials_unlit"]}