{"asset":{"version":"2.0","generator":"GLTFExporter"},"scenes":[{"nodes":[0],"name":"AuxScene"}],"scene":0,"nodes":[{"mesh":0}],"bufferViews":[{"buffer":0,"byteOffset":0,"byteLength":8088,"target":34962,"byteStride":12},{"buffer":0,"byteOffset":8088,"byteLength":8088,"target":34962,"byteStride":12},{"buffer":0,"byteOffset":16176,"byteLength":10784,"target":34962,"byteStride":16},{"buffer":0,"byteOffset":26960,"byteLength":5392,"target":34962,"byteStride":8},{"buffer":0,"byteOffset":32352,"byteLength":5392,"target":34962,"byteStride":8},{"buffer":0,"byteOffset":37744,"byteLength":8088,"target":34962,"byteStride":12},{"buffer":0,"byteOffset":45832,"byteLength":13824,"target":34963}],"buffers":[{"byteLength":59656,"uri":"data:application/octet-stream;base64,"}],"accessors":[{"bufferView":0,"componentType":5126,"count":674,"max":[0.26661059260368347,0.25233545899391174,0.042487163096666336],"min":[-0.22193145751953125,-0.25233644247055054,-0.2947387397289276],"type":"VEC3"},{"bufferView":1,"componentType":5126,"count":674,"max":[0.9959602952003479,0.9992297887802124,0.9965581297874451],"min":[-0.9964829683303833,-0.9992297887802124,-0.9987803101539612],"type":"VEC3"},{"bufferView":2,"componentType":5126,"count":674,"max":[0.7558257579803467,0.9726284146308899,0.9845089316368103,1],"min":[-0.9210598468780518,-0.08372439444065094,-0.9979091286659241,1],"type":"VEC4"},{"bufferView":3,"componentType":5126,"count":674,"max":[0.8409114480018616,0.9998579621315002],"min":[0.00014212419046089053,0.00014212419046089053],"type":"VEC2"},{"bufferView":4,"componentType":5126,"count":674,"max":[0.6610267758369446,0.3705919086933136],"min":[0.619140625,0.3207872211933136],"type":"VEC2"},{"bufferView":5,"componentType":5126,"count":674,"max":[1,1,1],"min":[1,1,1],"type":"VEC3"},{"bufferView":6,"componentType":5125,"count":3456,"max":[673],"min":[0],"type":"SCALAR"}],"materials":[{"pbrMetallicRoughness":{"metallicFactor":0,"roughnessFactor":0.9},"extensions":{"KHR_materials_unlit":{}}}],"meshes":[{"primitives":[{"mode":4,"attributes":{"POSITION":0,"NORMAL":1,"TANGENT":2,"TEXCOORD_0":3,"TEXCOORD_1":4,"COLOR_0":5},"indices":6,"material":0}]}],"extensionsUsed":["KHR_materials_unlit"]}