{"asset":{"version":"2.0","generator":"GLTFExporter"},"scenes":[{"nodes":[0],"name":"AuxScene"}],"scene":0,"nodes":[{"mesh":0}],"bufferViews":[{"buffer":0,"byteOffset":0,"byteLength":21588,"target":34962,"byteStride":12},{"buffer":0,"byteOffset":21588,"byteLength":21588,"target":34962,"byteStride":12},{"buffer":0,"byteOffset":43176,"byteLength":28784,"target":34962,"byteStride":16},{"buffer":0,"byteOffset":71960,"byteLength":14392,"target":34962,"byteStride":8},{"buffer":0,"byteOffset":86352,"byteLength":31056,"target":34963}],"buffers":[{"byteLength":117408,"uri":"data:application/octet-stream;base64,"}],"accessors":[{"bufferView":0,"componentType":5126,"count":1799,"max":[0.005443767178803682,0.019243137910962105,0.00009611317364033312],"min":[-0.005142646841704845,-0.01956332102417946,-0.007781530264765024],"type":"VEC3"},{"bufferView":1,"componentType":5126,"count":1799,"max":[0.9998332262039185,0.9998555183410645,0.9997420907020569],"min":[-0.9999862909317017,-0.9998389482498169,-0.9999758005142212],"type":"VEC3"},{"bufferView":2,"componentType":5126,"count":1799,"max":[1,0.9999756813049316,0.9999672174453735,1],"min":[-1,-0.9999830722808838,-0.999679446220398,1],"type":"VEC4"},{"bufferView":3,"componentType":5126,"count":1799,"max":[0.9910269975662231,0.9791545867919922],"min":[0.008973094634711742,0.008973094634711742],"type":"VEC2"},{"bufferView":4,"componentType":5125,"count":7764,"max":[1798],"min":[0],"type":"SCALAR"}],"materials":[{"pbrMetallicRoughness":{"metallicFactor":0,"roughnessFactor":0.9},"extensions":{"KHR_materials_unlit":{}}}],"meshes":[{"primitives":[{"mode":4,"attributes":{"POSITION":0,"NORMAL":1,"TANGENT":2,"TEXCOORD_0":3},"indices":4,"material":0}]}],"extensionsUsed":["KHR_materials_unlit"]}