{"asset":{"version":"2.0","generator":"GLTFExporter"},"scenes":[{"nodes":[0],"name":"AuxScene"}],"scene":0,"nodes":[{"mesh":0}],"bufferViews":[{"buffer":0,"byteOffset":0,"byteLength":4884,"target":34962,"byteStride":12},{"buffer":0,"byteOffset":4884,"byteLength":4884,"target":34962,"byteStride":12},{"buffer":0,"byteOffset":9768,"byteLength":6512,"target":34962,"byteStride":16},{"buffer":0,"byteOffset":16280,"byteLength":3256,"target":34962,"byteStride":8},{"buffer":0,"byteOffset":19536,"byteLength":9216,"target":34963}],"buffers":[{"byteLength":28752,"uri":"data:application/octet-stream;base64,"}],"accessors":[{"bufferView":0,"componentType":5126,"count":407,"max":[0.005108108278363943,0.005019760224968195,0.004999707918614149],"min":[-0.004891891498118639,-0.004980239551514387,-0.005000291857868433],"type":"VEC3"},{"bufferView":1,"componentType":5126,"count":407,"max":[0.996452808380127,0.9932261109352112,0.9999775886535645],"min":[-0.999975323677063,-0.9904300570487976,-0.9999750852584839],"type":"VEC3"},{"bufferView":2,"componentType":5126,"count":407,"max":[1,0.14255045354366302,0.9979895353317261,1],"min":[-1,-0.14979015290737152,-1,1],"type":"VEC4"},{"bufferView":3,"componentType":5126,"count":407,"max":[0.9983336925506592,0.9758911728858948],"min":[-0.0009213685989379883,0.017628980800509453],"type":"VEC2"},{"bufferView":4,"componentType":5125,"count":2304,"max":[406],"min":[0],"type":"SCALAR"}],"materials":[{"pbrMetallicRoughness":{"metallicFactor":0,"roughnessFactor":0.9},"extensions":{"KHR_materials_unlit":{}}}],"meshes":[{"primitives":[{"mode":4,"attributes":{"POSITION":0,"NORMAL":1,"TANGENT":2,"TEXCOORD_0":3},"indices":4,"material":0}]}],"extensionsUsed":["KHR_materials_unlit"]}