{"asset":{"version":"2.0","generator":"GLTFExporter"},"scenes":[{"nodes":[0],"name":"AuxScene"}],"scene":0,"nodes":[{"mesh":0}],"bufferViews":[{"buffer":0,"byteOffset":0,"byteLength":25728,"target":34962,"byteStride":12},{"buffer":0,"byteOffset":25728,"byteLength":25728,"target":34962,"byteStride":12},{"buffer":0,"byteOffset":51456,"byteLength":34304,"target":34962,"byteStride":16},{"buffer":0,"byteOffset":85760,"byteLength":17152,"target":34962,"byteStride":8},{"buffer":0,"byteOffset":102912,"byteLength":17152,"target":34962,"byteStride":8},{"buffer":0,"byteOffset":120064,"byteLength":22848,"target":34963}],"buffers":[{"byteLength":142912,"uri":"data:application/octet-stream;base64,"}],"accessors":[{"bufferView":0,"componentType":5126,"count":2144,"max":[1.729919672012329,0.6493600606918335,0.23194998502731323],"min":[-0.22547701001167297,-0.05719790235161781,-0.27081355452537537],"type":"VEC3"},{"bufferView":1,"componentType":5126,"count":2144,"max":[0.9997063279151917,0.9901699423789978,0.9997760653495789],"min":[-0.9988679885864258,-0.9716459512710571,-0.9984055161476135],"type":"VEC3"},{"bufferView":2,"componentType":5126,"count":2144,"max":[0.9975904226303101,0.9945554733276367,0.9989509582519531,1],"min":[-0.999560534954071,-0.9903488159179688,-0.9997274279594421,1],"type":"VEC4"},{"bufferView":3,"componentType":5126,"count":2144,"max":[1,1],"min":[0.002300000051036477,0.017100000753998756],"type":"VEC2"},{"bufferView":4,"componentType":5126,"count":2144,"max":[0.06624072045087814,0.7089223861694336],"min":[9.944368245529134e-12,0.6425161361694336],"type":"VEC2"},{"bufferView":5,"componentType":5125,"count":5712,"max":[2143],"min":[0],"type":"SCALAR"}],"materials":[{"pbrMetallicRoughness":{"metallicFactor":0,"roughnessFactor":0.9},"extensions":{"KHR_materials_unlit":{}}}],"meshes":[{"primitives":[{"mode":4,"attributes":{"POSITION":0,"NORMAL":1,"TANGENT":2,"TEXCOORD_0":3,"TEXCOORD_1":4},"indices":5,"material":0}]}],"extensionsUsed":["KHR_materials_unlit"]}