{"asset":{"version":"2.0","generator":"GLTFExporter"},"scenes":[{"nodes":[0],"name":"AuxScene"}],"scene":0,"nodes":[{"mesh":0}],"bufferViews":[{"buffer":0,"byteOffset":0,"byteLength":864,"target":34962,"byteStride":12},{"buffer":0,"byteOffset":864,"byteLength":864,"target":34962,"byteStride":12},{"buffer":0,"byteOffset":1728,"byteLength":1152,"target":34962,"byteStride":16},{"buffer":0,"byteOffset":2880,"byteLength":576,"target":34962,"byteStride":8},{"buffer":0,"byteOffset":3456,"byteLength":576,"target":34962,"byteStride":8},{"buffer":0,"byteOffset":4032,"byteLength":432,"target":34963}],"buffers":[{"byteLength":4464,"uri":"data:application/octet-stream;base64,"}],"accessors":[{"bufferView":0,"componentType":5126,"count":72,"max":[0.021183136850595474,0.0009784889407455921,0.021922655403614044],"min":[-0.01675662398338318,-0.0009785008151084185,-0.02192274108529091],"type":"VEC3"},{"bufferView":1,"componentType":5126,"count":72,"max":[0,0,0.00033165255445055664],"min":[-1,-1,0],"type":"VEC3"},{"bufferView":2,"componentType":5126,"count":72,"max":[0,0,-1,1],"min":[0,0,-1,1],"type":"VEC4"},{"bufferView":3,"componentType":5126,"count":72,"max":[0.5170051455497742,0.9869750738143921],"min":[0.03411843255162239,0.013024943880736828],"type":"VEC2"},{"bufferView":4,"componentType":5126,"count":72,"max":[0.06348348408937454,0.5546255111694336],"min":[-1.8540835533542577e-11,0.4833364486694336],"type":"VEC2"},{"bufferView":5,"componentType":5125,"count":108,"max":[71],"min":[0],"type":"SCALAR"}],"materials":[{"pbrMetallicRoughness":{"metallicFactor":0,"roughnessFactor":0.9},"extensions":{"KHR_materials_unlit":{}}}],"meshes":[{"primitives":[{"mode":4,"attributes":{"POSITION":0,"NORMAL":1,"TANGENT":2,"TEXCOORD_0":3,"TEXCOORD_1":4},"indices":5,"material":0}]}],"extensionsUsed":["KHR_materials_unlit"]}