{"asset":{"version":"2.0","generator":"GLTFExporter"},"scenes":[{"nodes":[0],"name":"AuxScene"}],"scene":0,"nodes":[{"mesh":0}],"bufferViews":[{"buffer":0,"byteOffset":0,"byteLength":12876,"target":34962,"byteStride":12},{"buffer":0,"byteOffset":12876,"byteLength":12876,"target":34962,"byteStride":12},{"buffer":0,"byteOffset":25752,"byteLength":17168,"target":34962,"byteStride":16},{"buffer":0,"byteOffset":42920,"byteLength":8584,"target":34962,"byteStride":8},{"buffer":0,"byteOffset":51504,"byteLength":21192,"target":34963}],"buffers":[{"byteLength":72696,"uri":"data:application/octet-stream;base64,"}],"accessors":[{"bufferView":0,"componentType":5126,"count":1073,"max":[0.47629743814468384,0.5333020091056824,0.005379211623221636],"min":[-0.4889829158782959,-0.5873913764953613,-0.8479614853858948],"type":"VEC3"},{"bufferView":1,"componentType":5126,"count":1073,"max":[0.9999843835830688,0.9999957084655762,0.9999831914901733],"min":[-0.9999483823776245,-0.9997439980506897,-0.9989270567893982],"type":"VEC3"},{"bufferView":2,"componentType":5126,"count":1073,"max":[0.7822691798210144,0.9999963045120239,0.9960404634475708,1],"min":[-0.9848392009735107,-0.9980383515357971,-0.9999197721481323,1],"type":"VEC4"},{"bufferView":3,"componentType":5126,"count":1073,"max":[0.7667965292930603,0.9998335838317871],"min":[0.00016641673573758453,0.00016641673573758453],"type":"VEC2"},{"bufferView":4,"componentType":5125,"count":5298,"max":[1072],"min":[0],"type":"SCALAR"}],"materials":[{"pbrMetallicRoughness":{"metallicFactor":0,"roughnessFactor":0.9},"extensions":{"KHR_materials_unlit":{}}}],"meshes":[{"primitives":[{"mode":4,"attributes":{"POSITION":0,"NORMAL":1,"TANGENT":2,"TEXCOORD_0":3},"indices":4,"material":0}]}],"extensionsUsed":["KHR_materials_unlit"]}