{"asset":{"version":"2.0","generator":"GLTFExporter"},"scenes":[{"nodes":[0],"name":"AuxScene"}],"scene":0,"nodes":[{"mesh":0}],"bufferViews":[{"buffer":0,"byteOffset":0,"byteLength":48,"target":34962,"byteStride":12},{"buffer":0,"byteOffset":48,"byteLength":48,"target":34962,"byteStride":12},{"buffer":0,"byteOffset":96,"byteLength":64,"target":34962,"byteStride":16},{"buffer":0,"byteOffset":160,"byteLength":32,"target":34962,"byteStride":8},{"buffer":0,"byteOffset":192,"byteLength":32,"target":34962,"byteStride":8},{"buffer":0,"byteOffset":224,"byteLength":48,"target":34962,"byteStride":12},{"buffer":0,"byteOffset":272,"byteLength":24,"target":34963}],"buffers":[{"byteLength":296,"uri":"data:application/octet-stream;base64,"}],"accessors":[{"bufferView":0,"componentType":5126,"count":4,"max":[-0.07089999318122864,0.05174997076392174,0.014199999161064625],"min":[-0.07089999318122864,-0.01575002446770668,-0.014199999161064625],"type":"VEC3"},{"bufferView":1,"componentType":5126,"count":4,"max":[1,0,0],"min":[1,0,0],"type":"VEC3"},{"bufferView":2,"componentType":5126,"count":4,"max":[0,-1,0,1],"min":[0,-1,0,1],"type":"VEC4"},{"bufferView":3,"componentType":5126,"count":4,"max":[0.6802862882614136,0.9403325319290161],"min":[0.32419440150260925,0.7905101776123047],"type":"VEC2"},{"bufferView":4,"componentType":5126,"count":4,"max":[0.3623046875,0.9239206910133362],"min":[-6.650076045389142e-9,0.771484375],"type":"VEC2"},{"bufferView":5,"componentType":5126,"count":4,"max":[1,1,1],"min":[1,1,1],"type":"VEC3"},{"bufferView":6,"componentType":5125,"count":6,"max":[3],"min":[0],"type":"SCALAR"}],"materials":[{"pbrMetallicRoughness":{"metallicFactor":0,"roughnessFactor":0.9},"extensions":{"KHR_materials_unlit":{}}}],"meshes":[{"primitives":[{"mode":4,"attributes":{"POSITION":0,"NORMAL":1,"TANGENT":2,"TEXCOORD_0":3,"TEXCOORD_1":4,"COLOR_0":5},"indices":6,"material":0}]}],"extensionsUsed":["KHR_materials_unlit"]}