{"asset":{"version":"2.0","generator":"GLTFExporter"},"scenes":[{"nodes":[0]}],"scene":0,"nodes":[{"mesh":0}],"bufferViews":[{"buffer":0,"byteOffset":0,"byteLength":2100,"target":34962,"byteStride":12},{"buffer":0,"byteOffset":2100,"byteLength":2100,"target":34962,"byteStride":12},{"buffer":0,"byteOffset":4200,"byteLength":2800,"target":34962,"byteStride":16},{"buffer":0,"byteOffset":7000,"byteLength":1400,"target":34962,"byteStride":8},{"buffer":0,"byteOffset":8400,"byteLength":1400,"target":34962,"byteStride":8},{"buffer":0,"byteOffset":9800,"byteLength":2952,"target":34963}],"buffers":[{"byteLength":12752,"uri":"data:application/octet-stream;base64,"}],"accessors":[{"bufferView":0,"componentType":5126,"count":175,"max":[0.01210029236972332,0.005086889956146479,-0.007262789644300938],"min":[-0.011960092931985855,-0.0051889619790017605,-0.007654794957488775],"type":"VEC3"},{"bufferView":1,"componentType":5126,"count":175,"max":[0.992668092250824,0.9999780654907227,0.9999997615814209],"min":[-0.9849218726158142,-0.9999690055847168,-0.9999998807907104],"type":"VEC3"},{"bufferView":2,"componentType":5126,"count":175,"max":[1,1,0.9808942079544067,1],"min":[-1,-0.906457781791687,-0.9926775693893433,1],"type":"VEC4"},{"bufferView":3,"componentType":5126,"count":175,"max":[0.9488974213600159,0.9906432628631592],"min":[0.009356828406453133,0.009356828406453133],"type":"VEC2"},{"bufferView":4,"componentType":5126,"count":175,"max":[0.8930201530456543,0.32454243302345276],"min":[0.7742729187011719,0.20051898062229156],"type":"VEC2"},{"bufferView":5,"componentType":5125,"count":738,"max":[174],"min":[0],"type":"SCALAR"}],"materials":[{"pbrMetallicRoughness":{"metallicFactor":0,"roughnessFactor":0.9},"extensions":{"KHR_materials_unlit":{}}}],"meshes":[{"primitives":[{"mode":4,"attributes":{"POSITION":0,"NORMAL":1,"TANGENT":2,"TEXCOORD_0":3,"TEXCOORD_1":4},"indices":5,"material":0}]}],"extensionsUsed":["KHR_materials_unlit"]}