{"asset":{"version":"2.0","generator":"GLTFExporter"},"scenes":[{"nodes":[0],"name":"AuxScene"}],"scene":0,"nodes":[{"mesh":0}],"bufferViews":[{"buffer":0,"byteOffset":0,"byteLength":1056,"target":34962,"byteStride":12},{"buffer":0,"byteOffset":1056,"byteLength":1056,"target":34962,"byteStride":12},{"buffer":0,"byteOffset":2112,"byteLength":1408,"target":34962,"byteStride":16},{"buffer":0,"byteOffset":3520,"byteLength":704,"target":34962,"byteStride":8},{"buffer":0,"byteOffset":4224,"byteLength":704,"target":34962,"byteStride":8},{"buffer":0,"byteOffset":4928,"byteLength":960,"target":34963}],"buffers":[{"byteLength":5888,"uri":"data:application/octet-stream;base64,"}],"accessors":[{"bufferView":0,"componentType":5126,"count":88,"max":[0.5000001192092896,1,0.5000002384185791],"min":[-0.5,-1,-0.5000000596046448],"type":"VEC3"},{"bufferView":1,"componentType":5126,"count":88,"max":[1,1,1],"min":[-1,-1,-1],"type":"VEC3"},{"bufferView":2,"componentType":5126,"count":88,"max":[1,0,1,1],"min":[-1,0,-1,1],"type":"VEC4"},{"bufferView":3,"componentType":5126,"count":88,"max":[0.9997491240501404,0.999430775642395],"min":[0.0006936856079846621,0.00045373811735771596],"type":"VEC2"},{"bufferView":4,"componentType":5126,"count":88,"max":[0.8124660849571228,0.07304903864860535],"min":[0.805647075176239,0.06621310114860535],"type":"VEC2"},{"bufferView":5,"componentType":5125,"count":240,"max":[87],"min":[0],"type":"SCALAR"}],"materials":[{"pbrMetallicRoughness":{"metallicFactor":0,"roughnessFactor":0.9},"extensions":{"KHR_materials_unlit":{}}}],"meshes":[{"primitives":[{"mode":4,"attributes":{"POSITION":0,"NORMAL":1,"TANGENT":2,"TEXCOORD_0":3,"TEXCOORD_1":4},"indices":5,"material":0}]}],"extensionsUsed":["KHR_materials_unlit"]}