{"asset":{"version":"2.0","generator":"GLTFExporter"},"scenes":[{"nodes":[0],"name":"AuxScene"}],"scene":0,"nodes":[{"mesh":0}],"bufferViews":[{"buffer":0,"byteOffset":0,"byteLength":336,"target":34962,"byteStride":12},{"buffer":0,"byteOffset":336,"byteLength":336,"target":34962,"byteStride":12},{"buffer":0,"byteOffset":672,"byteLength":448,"target":34962,"byteStride":16},{"buffer":0,"byteOffset":1120,"byteLength":224,"target":34962,"byteStride":8},{"buffer":0,"byteOffset":1344,"byteLength":224,"target":34962,"byteStride":8},{"buffer":0,"byteOffset":1568,"byteLength":192,"target":34963}],"buffers":[{"byteLength":1760,"uri":"data:application/octet-stream;base64,"}],"accessors":[{"bufferView":0,"componentType":5126,"count":28,"max":[0.2004479020833969,0.0024644089862704277,0.1930484026670456],"min":[-0.08222506195306778,-0.0050360593013465405,-0.07190392166376114],"type":"VEC3"},{"bufferView":1,"componentType":5126,"count":28,"max":[1,1,1],"min":[-0.9999966621398926,0,-1],"type":"VEC3"},{"bufferView":2,"componentType":5126,"count":28,"max":[1,1,0,1],"min":[0,-1,-1,1],"type":"VEC4"},{"bufferView":3,"componentType":5126,"count":28,"max":[0.992646336555481,0.8718252182006836],"min":[0.007353659253567457,0.007353659253567457],"type":"VEC2"},{"bufferView":4,"componentType":5126,"count":28,"max":[0.6499831080436707,0.9657045602798462],"min":[0.11092063039541245,0.43570512533187866],"type":"VEC2"},{"bufferView":5,"componentType":5125,"count":48,"max":[27],"min":[0],"type":"SCALAR"}],"materials":[{"pbrMetallicRoughness":{"metallicFactor":0,"roughnessFactor":0.9},"extensions":{"KHR_materials_unlit":{}}}],"meshes":[{"primitives":[{"mode":4,"attributes":{"POSITION":0,"NORMAL":1,"TANGENT":2,"TEXCOORD_0":3,"TEXCOORD_1":4},"indices":5,"material":0}]}],"extensionsUsed":["KHR_materials_unlit"]}