{"asset":{"version":"2.0","generator":"GLTFExporter"},"scenes":[{"nodes":[0]}],"scene":0,"nodes":[{"mesh":0}],"bufferViews":[{"buffer":0,"byteOffset":0,"byteLength":56976,"target":34962,"byteStride":12},{"buffer":0,"byteOffset":56976,"byteLength":56976,"target":34962,"byteStride":12},{"buffer":0,"byteOffset":113952,"byteLength":75968,"target":34962,"byteStride":16},{"buffer":0,"byteOffset":189920,"byteLength":37984,"target":34962,"byteStride":8},{"buffer":0,"byteOffset":227904,"byteLength":37984,"target":34962,"byteStride":8},{"buffer":0,"byteOffset":265888,"byteLength":48384,"target":34963}],"buffers":[{"byteLength":314272,"uri":"data:application/octet-stream;base64,"}],"accessors":[{"bufferView":0,"componentType":5126,"count":4748,"max":[3.9173595905303955,0.5563709139823914,1.168040156364441],"min":[0.3815220296382904,0.042677395045757294,-0.8629151582717896],"type":"VEC3"},{"bufferView":1,"componentType":5126,"count":4748,"max":[0.9999310374259949,0.94402676820755,0.9999309778213501],"min":[-0.9999310374259949,-0.9895778894424438,-0.9999310374259949],"type":"VEC3"},{"bufferView":2,"componentType":5126,"count":4748,"max":[0.9998852014541626,0.987988293170929,0.9998852610588074,1],"min":[-0.9998851418495178,-0.9962862730026245,-0.9998852014541626,1],"type":"VEC4"},{"bufferView":3,"componentType":5126,"count":4748,"max":[0.9999104142189026,0.24017831683158875],"min":[0.00008954412624007091,0.00008954412624007091],"type":"VEC2"},{"bufferView":4,"componentType":5126,"count":4748,"max":[0.9150390625,0.051730506122112274],"min":[0.86328125,-3.316436014699775e-11],"type":"VEC2"},{"bufferView":5,"componentType":5125,"count":12096,"max":[4747],"min":[0],"type":"SCALAR"}],"materials":[{"pbrMetallicRoughness":{"metallicFactor":0,"roughnessFactor":0.9},"extensions":{"KHR_materials_unlit":{}}}],"meshes":[{"primitives":[{"mode":4,"attributes":{"POSITION":0,"NORMAL":1,"TANGENT":2,"TEXCOORD_0":3,"TEXCOORD_1":4},"indices":5,"material":0}]}],"extensionsUsed":["KHR_materials_unlit"]}