{"asset":{"version":"2.0","generator":"GLTFExporter"},"scenes":[{"nodes":[0],"name":"AuxScene"}],"scene":0,"nodes":[{"mesh":0}],"bufferViews":[{"buffer":0,"byteOffset":0,"byteLength":3696,"target":34962,"byteStride":12},{"buffer":0,"byteOffset":3696,"byteLength":3696,"target":34962,"byteStride":12},{"buffer":0,"byteOffset":7392,"byteLength":4928,"target":34962,"byteStride":16},{"buffer":0,"byteOffset":12320,"byteLength":2464,"target":34962,"byteStride":8},{"buffer":0,"byteOffset":14784,"byteLength":2464,"target":34962,"byteStride":8},{"buffer":0,"byteOffset":17248,"byteLength":4656,"target":34963}],"buffers":[{"byteLength":21904,"uri":"data:application/octet-stream;base64,"}],"accessors":[{"bufferView":0,"componentType":5126,"count":308,"max":[0.0017618144629523158,0.0016396063147112727,-0.000006761699751223205],"min":[-0.001734166289679706,-0.001247801585122943,-0.002466922625899315],"type":"VEC3"},{"bufferView":1,"componentType":5126,"count":308,"max":[0.9830631017684937,0.9915646314620972,0.9915643930435181],"min":[-0.9830629825592041,-0.9910920262336731,-1],"type":"VEC3"},{"bufferView":2,"componentType":5126,"count":308,"max":[0.8692526817321777,1,0.9999969005584717,1],"min":[-0.8692525029182434,-0.9831407070159912,-0.9914793372154236,1],"type":"VEC4"},{"bufferView":3,"componentType":5126,"count":308,"max":[0.9934980869293213,0.9580033421516418],"min":[0.006501876283437014,0.006501876283437014],"type":"VEC2"},{"bufferView":4,"componentType":5126,"count":308,"max":[0.8393112421035767,0.35872209072113037],"min":[0.8073154091835022,0.32649552822113037],"type":"VEC2"},{"bufferView":5,"componentType":5125,"count":1164,"max":[307],"min":[0],"type":"SCALAR"}],"materials":[{"pbrMetallicRoughness":{"metallicFactor":0,"roughnessFactor":0.9},"extensions":{"KHR_materials_unlit":{}}}],"meshes":[{"primitives":[{"mode":4,"attributes":{"POSITION":0,"NORMAL":1,"TANGENT":2,"TEXCOORD_0":3,"TEXCOORD_1":4},"indices":5,"material":0}]}],"extensionsUsed":["KHR_materials_unlit"]}