{"asset":{"version":"2.0","generator":"GLTFExporter"},"scenes":[{"nodes":[0],"name":"AuxScene"}],"scene":0,"nodes":[{"mesh":0}],"bufferViews":[{"buffer":0,"byteOffset":0,"byteLength":4032,"target":34962,"byteStride":12},{"buffer":0,"byteOffset":4032,"byteLength":4032,"target":34962,"byteStride":12},{"buffer":0,"byteOffset":8064,"byteLength":5376,"target":34962,"byteStride":16},{"buffer":0,"byteOffset":13440,"byteLength":2688,"target":34962,"byteStride":8},{"buffer":0,"byteOffset":16128,"byteLength":4488,"target":34963}],"buffers":[{"byteLength":20616,"uri":"data:application/octet-stream;base64,"}],"accessors":[{"bufferView":0,"componentType":5126,"count":336,"max":[1.2100292444229126,0.7654793858528137,0.5086892247200012],"min":[-1.1960092782974243,0.01504320465028286,-0.5188959836959839],"type":"VEC3"},{"bufferView":1,"componentType":5126,"count":336,"max":[1,0.9999998807907104,1],"min":[-1,-1,-1],"type":"VEC3"},{"bufferView":2,"componentType":5126,"count":336,"max":[1,1,1,1],"min":[-1,-0.993395984172821,-1,1],"type":"VEC4"},{"bufferView":3,"componentType":5126,"count":336,"max":[0.9930312037467957,0.9906432628631592],"min":[0.006968823727220297,0.006968823727220297],"type":"VEC2"},{"bufferView":4,"componentType":5125,"count":1122,"max":[335],"min":[0],"type":"SCALAR"}],"materials":[{"pbrMetallicRoughness":{"metallicFactor":0,"roughnessFactor":0.9},"extensions":{"KHR_materials_unlit":{}}}],"meshes":[{"primitives":[{"mode":4,"attributes":{"POSITION":0,"NORMAL":1,"TANGENT":2,"TEXCOORD_0":3},"indices":4,"material":0}]}],"extensionsUsed":["KHR_materials_unlit"]}