{"asset":{"version":"2.0","generator":"GLTFExporter"},"scenes":[{"nodes":[0],"name":"AuxScene"}],"scene":0,"nodes":[{"mesh":0}],"bufferViews":[{"buffer":0,"byteOffset":0,"byteLength":11076,"target":34962,"byteStride":12},{"buffer":0,"byteOffset":11076,"byteLength":11076,"target":34962,"byteStride":12},{"buffer":0,"byteOffset":22152,"byteLength":14768,"target":34962,"byteStride":16},{"buffer":0,"byteOffset":36920,"byteLength":7384,"target":34962,"byteStride":8},{"buffer":0,"byteOffset":44304,"byteLength":7384,"target":34962,"byteStride":8},{"buffer":0,"byteOffset":51688,"byteLength":10392,"target":34963}],"buffers":[{"byteLength":62080,"uri":"data:application/octet-stream;base64,"}],"accessors":[{"bufferView":0,"componentType":5126,"count":923,"max":[0.00511787086725235,0.018964016810059547,0.00009611317364033312],"min":[-0.005087773781269789,-0.019414495676755905,-0.0008038961095735431],"type":"VEC3"},{"bufferView":1,"componentType":5126,"count":923,"max":[1,0.9659459590911865,1],"min":[-1,-0.9425674676895142,-0.998427152633667],"type":"VEC3"},{"bufferView":2,"componentType":5126,"count":923,"max":[1,0.9930545687675476,1,1],"min":[-1,-1,-0.9999005794525146,1],"type":"VEC4"},{"bufferView":3,"componentType":5126,"count":923,"max":[0.9049789905548096,0.9943755865097046],"min":[0.005624451674520969,0.005624451674520969],"type":"VEC2"},{"bufferView":4,"componentType":5126,"count":923,"max":[0.8053622841835022,0.36067521572113037],"min":[0.7742729187011719,0.32649552822113037],"type":"VEC2"},{"bufferView":5,"componentType":5125,"count":2598,"max":[922],"min":[0],"type":"SCALAR"}],"materials":[{"pbrMetallicRoughness":{"metallicFactor":0,"roughnessFactor":0.9},"extensions":{"KHR_materials_unlit":{}}}],"meshes":[{"primitives":[{"mode":4,"attributes":{"POSITION":0,"NORMAL":1,"TANGENT":2,"TEXCOORD_0":3,"TEXCOORD_1":4},"indices":5,"material":0}]}],"extensionsUsed":["KHR_materials_unlit"]}