{"asset":{"version":"2.0","generator":"GLTFExporter"},"scenes":[{"nodes":[0],"name":"AuxScene"}],"scene":0,"nodes":[{"mesh":0}],"bufferViews":[{"buffer":0,"byteOffset":0,"byteLength":6180,"target":34962,"byteStride":12},{"buffer":0,"byteOffset":6180,"byteLength":6180,"target":34962,"byteStride":12},{"buffer":0,"byteOffset":12360,"byteLength":8240,"target":34962,"byteStride":16},{"buffer":0,"byteOffset":20600,"byteLength":4120,"target":34962,"byteStride":8},{"buffer":0,"byteOffset":24720,"byteLength":9216,"target":34963}],"buffers":[{"byteLength":33936,"uri":"data:application/octet-stream;base64,"}],"accessors":[{"bufferView":0,"componentType":5126,"count":515,"max":[0.5,0.5,0.5],"min":[-0.5,-0.5,-0.5],"type":"VEC3"},{"bufferView":1,"componentType":5126,"count":515,"max":[0.9999749660491943,1,0.9999735355377197],"min":[-0.9999749660491943,-1,-0.9999769926071167],"type":"VEC3"},{"bufferView":2,"componentType":5126,"count":515,"max":[1,0.05613100156188011,1,1],"min":[-1,-0.06598339229822159,-1,1],"type":"VEC4"},{"bufferView":3,"componentType":5126,"count":515,"max":[0.9983336925506592,0.9758912324905396],"min":[-0.0009213685989379883,0.017628978937864304],"type":"VEC2"},{"bufferView":4,"componentType":5125,"count":2304,"max":[514],"min":[0],"type":"SCALAR"}],"materials":[{"pbrMetallicRoughness":{"metallicFactor":0,"roughnessFactor":0.9},"extensions":{"KHR_materials_unlit":{}}}],"meshes":[{"primitives":[{"mode":4,"attributes":{"POSITION":0,"NORMAL":1,"TANGENT":2,"TEXCOORD_0":3},"indices":4,"material":0}]}],"extensionsUsed":["KHR_materials_unlit"]}