{"asset":{"version":"2.0","generator":"GLTFExporter"},"scenes":[{"nodes":[0],"name":"AuxScene"}],"scene":0,"nodes":[{"mesh":0}],"bufferViews":[{"buffer":0,"byteOffset":0,"byteLength":384,"target":34962,"byteStride":12},{"buffer":0,"byteOffset":384,"byteLength":384,"target":34962,"byteStride":12},{"buffer":0,"byteOffset":768,"byteLength":512,"target":34962,"byteStride":16},{"buffer":0,"byteOffset":1280,"byteLength":256,"target":34962,"byteStride":8},{"buffer":0,"byteOffset":1536,"byteLength":256,"target":34962,"byteStride":8},{"buffer":0,"byteOffset":1792,"byteLength":192,"target":34963}],"buffers":[{"byteLength":1984,"uri":"data:application/octet-stream;base64,"}],"accessors":[{"bufferView":0,"componentType":5126,"count":32,"max":[-0.0753580629825592,0.048202529549598694,0.15790340304374695],"min":[-0.08255186676979065,-0.0032675929833203554,0.03434097394347191],"type":"VEC3"},{"bufferView":1,"componentType":5126,"count":32,"max":[1,0.0003627680125646293,0.9999985694885254],"min":[0,-1,-0.9999985694885254],"type":"VEC3"},{"bufferView":2,"componentType":5126,"count":32,"max":[0,1,0,1],"min":[-1,0,-1,1],"type":"VEC4"},{"bufferView":3,"componentType":5126,"count":32,"max":[0.9923274517059326,0.7094926834106445],"min":[0.007672559004276991,0.007672559004276991],"type":"VEC2"},{"bufferView":4,"componentType":5126,"count":32,"max":[0.8093793988227844,0.8284449577331543],"min":[0.6519362330436707,0.6565699577331543],"type":"VEC2"},{"bufferView":5,"componentType":5125,"count":48,"max":[31],"min":[0],"type":"SCALAR"}],"materials":[{"pbrMetallicRoughness":{"metallicFactor":0,"roughnessFactor":0.9},"extensions":{"KHR_materials_unlit":{}}}],"meshes":[{"primitives":[{"mode":4,"attributes":{"POSITION":0,"NORMAL":1,"TANGENT":2,"TEXCOORD_0":3,"TEXCOORD_1":4},"indices":5,"material":0}]}],"extensionsUsed":["KHR_materials_unlit"]}