{"asset":{"version":"2.0","generator":"GLTFExporter"},"scenes":[{"nodes":[0],"name":"AuxScene"}],"scene":0,"nodes":[{"mesh":0}],"bufferViews":[{"buffer":0,"byteOffset":0,"byteLength":1248,"target":34962,"byteStride":12},{"buffer":0,"byteOffset":1248,"byteLength":1248,"target":34962,"byteStride":12},{"buffer":0,"byteOffset":2496,"byteLength":1664,"target":34962,"byteStride":16},{"buffer":0,"byteOffset":4160,"byteLength":832,"target":34962,"byteStride":8},{"buffer":0,"byteOffset":4992,"byteLength":832,"target":34962,"byteStride":8},{"buffer":0,"byteOffset":5824,"byteLength":696,"target":34963}],"buffers":[{"byteLength":6520,"uri":"data:application/octet-stream;base64,"}],"accessors":[{"bufferView":0,"componentType":5126,"count":104,"max":[-3.4222867488861084,3.662522077560425,19.478309631347656],"min":[-12.400614738464355,-0.7625166773796082,10.053399085998535],"type":"VEC3"},{"bufferView":1,"componentType":5126,"count":104,"max":[1,1,1],"min":[-1,-1,-1],"type":"VEC3"},{"bufferView":2,"componentType":5126,"count":104,"max":[1,1,1,1],"min":[0,-1,-1,1],"type":"VEC4"},{"bufferView":3,"componentType":5126,"count":104,"max":[0.9872300028800964,0.9874345660209656],"min":[0.012565507553517818,0.012565507553517818],"type":"VEC2"},{"bufferView":4,"componentType":5126,"count":104,"max":[0.7437331676483154,0.4000875651836395],"min":[0.44881126284599304,0.10647742450237274],"type":"VEC2"},{"bufferView":5,"componentType":5125,"count":174,"max":[103],"min":[0],"type":"SCALAR"}],"materials":[{"pbrMetallicRoughness":{"metallicFactor":0,"roughnessFactor":0.9},"extensions":{"KHR_materials_unlit":{}}}],"meshes":[{"primitives":[{"mode":4,"attributes":{"POSITION":0,"NORMAL":1,"TANGENT":2,"TEXCOORD_0":3,"TEXCOORD_1":4},"indices":5,"material":0}]}],"extensionsUsed":["KHR_materials_unlit"]}