{"asset":{"version":"2.0","generator":"GLTFExporter"},"scenes":[{"nodes":[0],"name":"AuxScene"}],"scene":0,"nodes":[{"mesh":0}],"bufferViews":[{"buffer":0,"byteOffset":0,"byteLength":62496,"target":34962,"byteStride":12},{"buffer":0,"byteOffset":62496,"byteLength":62496,"target":34962,"byteStride":12},{"buffer":0,"byteOffset":124992,"byteLength":83328,"target":34962,"byteStride":16},{"buffer":0,"byteOffset":208320,"byteLength":41664,"target":34962,"byteStride":8},{"buffer":0,"byteOffset":249984,"byteLength":41664,"target":34962,"byteStride":8},{"buffer":0,"byteOffset":291648,"byteLength":97056,"target":34963}],"buffers":[{"byteLength":388704,"uri":"data:application/octet-stream;base64,"}],"accessors":[{"bufferView":0,"componentType":5126,"count":5208,"max":[3.979405641555786,0.8810087442398071,1.230086088180542],"min":[0.3194759786128998,0.4897187054157257,-0.9249598383903503],"type":"VEC3"},{"bufferView":1,"componentType":5126,"count":5208,"max":[0.9978048801422119,0.9991986155509949,0.9978048801422119],"min":[-0.9978048801422119,-0.9991976022720337,-0.9978047013282776],"type":"VEC3"},{"bufferView":2,"componentType":5126,"count":5208,"max":[0.9999973177909851,0.9923468232154846,0.9999971985816956,1],"min":[-0.9999971985816956,-0.9980619549751282,-0.9999973177909851,1],"type":"VEC4"},{"bufferView":3,"componentType":5126,"count":5208,"max":[0.9897522926330566,0.984101414680481],"min":[0.0720369964838028,0.01286934781819582],"type":"VEC2"},{"bufferView":4,"componentType":5126,"count":5208,"max":[0.8982963562011719,0.19856585562229156],"min":[0.7742729187011719,0.0756700336933136],"type":"VEC2"},{"bufferView":5,"componentType":5125,"count":24264,"max":[5207],"min":[0],"type":"SCALAR"}],"materials":[{"pbrMetallicRoughness":{"metallicFactor":0,"roughnessFactor":0.9},"extensions":{"KHR_materials_unlit":{}}}],"meshes":[{"primitives":[{"mode":4,"attributes":{"POSITION":0,"NORMAL":1,"TANGENT":2,"TEXCOORD_0":3,"TEXCOORD_1":4},"indices":5,"material":0}]}],"extensionsUsed":["KHR_materials_unlit"]}