{"asset":{"version":"2.0","generator":"GLTFExporter"},"scenes":[{"nodes":[0],"name":"AuxScene"}],"scene":0,"nodes":[{"mesh":0}],"bufferViews":[{"buffer":0,"byteOffset":0,"byteLength":7800,"target":34962,"byteStride":12},{"buffer":0,"byteOffset":7800,"byteLength":7800,"target":34962,"byteStride":12},{"buffer":0,"byteOffset":15600,"byteLength":10400,"target":34962,"byteStride":16},{"buffer":0,"byteOffset":26000,"byteLength":5200,"target":34962,"byteStride":8},{"buffer":0,"byteOffset":31200,"byteLength":5200,"target":34962,"byteStride":8},{"buffer":0,"byteOffset":36400,"byteLength":13488,"target":34963}],"buffers":[{"byteLength":49888,"uri":"data:application/octet-stream;base64,"}],"accessors":[{"bufferView":0,"componentType":5126,"count":650,"max":[0.23411183059215546,0.22185349464416504,-0.0032459257636219263],"min":[-0.2202826887369156,-0.23253613710403442,-1.0423736572265625],"type":"VEC3"},{"bufferView":1,"componentType":5126,"count":650,"max":[0.9903197288513184,0.9903164505958557,0.9740417003631592],"min":[-0.9903197288513184,-0.9903164505958557,-1],"type":"VEC3"},{"bufferView":2,"componentType":5126,"count":650,"max":[0.9961607456207275,0.9994590878486633,0.9348703026771545,1],"min":[-0.9949110150337219,-0.9972881078720093,-0.9394007325172424,1],"type":"VEC4"},{"bufferView":3,"componentType":5126,"count":650,"max":[0.783953070640564,0.9841902256011963],"min":[0.01580982096493244,0.01580982096493244],"type":"VEC2"},{"bufferView":4,"componentType":5126,"count":650,"max":[0.9914162755012512,0.02734375],"min":[0.9697265625,-1.2449631603406175e-11],"type":"VEC2"},{"bufferView":5,"componentType":5125,"count":3372,"max":[649],"min":[0],"type":"SCALAR"}],"materials":[{"pbrMetallicRoughness":{"metallicFactor":0,"roughnessFactor":0.9},"extensions":{"KHR_materials_unlit":{}}}],"meshes":[{"primitives":[{"mode":4,"attributes":{"POSITION":0,"NORMAL":1,"TANGENT":2,"TEXCOORD_0":3,"TEXCOORD_1":4},"indices":5,"material":0}]}],"extensionsUsed":["KHR_materials_unlit"]}