{"asset":{"version":"2.0","generator":"GLTFExporter"},"scenes":[{"nodes":[0]}],"scene":0,"nodes":[{"mesh":0}],"bufferViews":[{"buffer":0,"byteOffset":0,"byteLength":53940,"target":34962,"byteStride":12},{"buffer":0,"byteOffset":53940,"byteLength":53940,"target":34962,"byteStride":12},{"buffer":0,"byteOffset":107880,"byteLength":71920,"target":34962,"byteStride":16},{"buffer":0,"byteOffset":179800,"byteLength":35960,"target":34962,"byteStride":8},{"buffer":0,"byteOffset":215760,"byteLength":35960,"target":34962,"byteStride":8},{"buffer":0,"byteOffset":251720,"byteLength":74088,"target":34963}],"buffers":[{"byteLength":325808,"uri":"data:application/octet-stream;base64,"}],"accessors":[{"bufferView":0,"componentType":5126,"count":4495,"max":[3.2050108909606934,1.1262869834899902,0.5608550906181335],"min":[1.0409440994262695,0.7956682443618774,-0.2592122256755829],"type":"VEC3"},{"bufferView":1,"componentType":5126,"count":4495,"max":[0.9992217421531677,1,0.9992201924324036],"min":[-0.9992218017578125,-1,-0.9992202520370483],"type":"VEC3"},{"bufferView":2,"componentType":5126,"count":4495,"max":[0.9999209046363831,0.986465334892273,0.9995368123054504,1],"min":[-0.9998500943183899,-0.9862085580825806,-0.9993195533752441,1],"type":"VEC4"},{"bufferView":3,"componentType":5126,"count":4495,"max":[0.996060848236084,0.9978395104408264],"min":[0.002019114326685667,0.002001038286834955],"type":"VEC2"},{"bufferView":4,"componentType":5126,"count":4495,"max":[0.861328125,0.06425997614860535],"min":[0.796875,2.566391543723512e-12],"type":"VEC2"},{"bufferView":5,"componentType":5125,"count":18522,"max":[4494],"min":[0],"type":"SCALAR"}],"materials":[{"pbrMetallicRoughness":{"metallicFactor":0,"roughnessFactor":0.9},"extensions":{"KHR_materials_unlit":{}}}],"meshes":[{"primitives":[{"mode":4,"attributes":{"POSITION":0,"NORMAL":1,"TANGENT":2,"TEXCOORD_0":3,"TEXCOORD_1":4},"indices":5,"material":0}]}],"extensionsUsed":["KHR_materials_unlit"]}