{"asset":{"version":"2.0","generator":"GLTFExporter"},"scenes":[{"nodes":[0],"name":"AuxScene"}],"scene":0,"nodes":[{"mesh":0}],"bufferViews":[{"buffer":0,"byteOffset":0,"byteLength":240,"target":34962,"byteStride":12},{"buffer":0,"byteOffset":240,"byteLength":240,"target":34962,"byteStride":12},{"buffer":0,"byteOffset":480,"byteLength":320,"target":34962,"byteStride":16},{"buffer":0,"byteOffset":800,"byteLength":160,"target":34962,"byteStride":8},{"buffer":0,"byteOffset":960,"byteLength":160,"target":34962,"byteStride":8},{"buffer":0,"byteOffset":1120,"byteLength":216,"target":34963}],"buffers":[{"byteLength":1336,"uri":"data:application/octet-stream;base64,"}],"accessors":[{"bufferView":0,"componentType":5126,"count":20,"max":[0.01404626201838255,0.023962249979376793,0.00004723454549093731],"min":[-0.01404626201838255,-0.023962249979376793,-0.00004723454549093731],"type":"VEC3"},{"bufferView":1,"componentType":5126,"count":20,"max":[0.7071067690849304,0.7071067690849304,0],"min":[-0.7071067690849304,-0.7071067690849304,-0.9054153561592102],"type":"VEC3"},{"bufferView":2,"componentType":5126,"count":20,"max":[0.9424039721488953,0.7071067094802856,0.9953006505966187,1],"min":[-0.06855293363332748,-0.7071067690849304,-0.9952947497367859,1],"type":"VEC4"},{"bufferView":3,"componentType":5126,"count":20,"max":[0.6299208998680115,0.999920666217804],"min":[0.00007935626490507275,0.00007935626490507275],"type":"VEC2"},{"bufferView":4,"componentType":5126,"count":20,"max":[0.7723197340965271,0.3188340961933136],"min":[0.619140625,0.0756700336933136],"type":"VEC2"},{"bufferView":5,"componentType":5125,"count":54,"max":[19],"min":[0],"type":"SCALAR"}],"materials":[{"pbrMetallicRoughness":{"metallicFactor":0,"roughnessFactor":0.9},"extensions":{"KHR_materials_unlit":{}}}],"meshes":[{"primitives":[{"mode":4,"attributes":{"POSITION":0,"NORMAL":1,"TANGENT":2,"TEXCOORD_0":3,"TEXCOORD_1":4},"indices":5,"material":0}]}],"extensionsUsed":["KHR_materials_unlit"]}