{"asset":{"version":"2.0","generator":"GLTFExporter"},"scenes":[{"nodes":[0],"name":"AuxScene"}],"scene":0,"nodes":[{"mesh":0}],"bufferViews":[{"buffer":0,"byteOffset":0,"byteLength":96,"target":34962,"byteStride":12},{"buffer":0,"byteOffset":96,"byteLength":96,"target":34962,"byteStride":12},{"buffer":0,"byteOffset":192,"byteLength":128,"target":34962,"byteStride":16},{"buffer":0,"byteOffset":320,"byteLength":64,"target":34962,"byteStride":8},{"buffer":0,"byteOffset":384,"byteLength":48,"target":34963}],"buffers":[{"byteLength":432,"uri":"data:application/octet-stream;base64,"}],"accessors":[{"bufferView":0,"componentType":5126,"count":8,"max":[42.54219055175781,2.1805458068847656,83.56774139404297],"min":[-35.015724182128906,-0.34492194652557373,69.54940795898438],"type":"VEC3"},{"bufferView":1,"componentType":5126,"count":8,"max":[0.15745700895786285,-0.00872664526104927,-0.9062728881835938],"min":[-0.422603040933609,-0.012216856703162193,-0.9874502420425415],"type":"VEC3"},{"bufferView":2,"componentType":5126,"count":8,"max":[-0.9063080549240112,5.820750478835457e-11,0.422617644071579,1],"min":[-0.9875240325927734,-1.1641507896564818e-10,-0.15746808052062988,1],"type":"VEC4"},{"bufferView":3,"componentType":5126,"count":8,"max":[0.99609375,0.21484375],"min":[0.001953125,0.00390625],"type":"VEC2"},{"bufferView":4,"componentType":5125,"count":12,"max":[7],"min":[0],"type":"SCALAR"}],"materials":[{"pbrMetallicRoughness":{"metallicFactor":0,"roughnessFactor":0.9},"extensions":{"KHR_materials_unlit":{}}}],"meshes":[{"primitives":[{"mode":4,"attributes":{"POSITION":0,"NORMAL":1,"TANGENT":2,"TEXCOORD_0":3},"indices":4,"material":0}]}],"extensionsUsed":["KHR_materials_unlit"]}