{"asset":{"version":"2.0","generator":"GLTFExporter"},"scenes":[{"nodes":[0],"name":"AuxScene"}],"scene":0,"nodes":[{"mesh":0}],"bufferViews":[{"buffer":0,"byteOffset":0,"byteLength":12996,"target":34962,"byteStride":12},{"buffer":0,"byteOffset":12996,"byteLength":12996,"target":34962,"byteStride":12},{"buffer":0,"byteOffset":25992,"byteLength":17328,"target":34962,"byteStride":16},{"buffer":0,"byteOffset":43320,"byteLength":8664,"target":34962,"byteStride":8},{"buffer":0,"byteOffset":51984,"byteLength":14424,"target":34963}],"buffers":[{"byteLength":66408,"uri":"data:application/octet-stream;base64,"}],"accessors":[{"bufferView":0,"componentType":5126,"count":1083,"max":[0.5038036704063416,0.5050135850906372,0.0000845684771775268],"min":[-0.5061962604522705,-0.5049864053726196,-0.26991546154022217],"type":"VEC3"},{"bufferView":1,"componentType":5126,"count":1083,"max":[0.9995899796485901,0.9999568462371826,1],"min":[-1,-0.9999572038650513,-1],"type":"VEC3"},{"bufferView":2,"componentType":5126,"count":1083,"max":[0.9999889135360718,0.999954104423523,0.7179838418960571,1],"min":[-0.9498279690742493,-0.9850677251815796,-0.9999834299087524,1],"type":"VEC4"},{"bufferView":3,"componentType":5126,"count":1083,"max":[0.9999999403953552,1],"min":[0,0],"type":"VEC2"},{"bufferView":4,"componentType":5125,"count":3606,"max":[1082],"min":[0],"type":"SCALAR"}],"materials":[{"pbrMetallicRoughness":{"metallicFactor":0,"roughnessFactor":0.9},"extensions":{"KHR_materials_unlit":{}}}],"meshes":[{"primitives":[{"mode":4,"attributes":{"POSITION":0,"NORMAL":1,"TANGENT":2,"TEXCOORD_0":3},"indices":4,"material":0}]}],"extensionsUsed":["KHR_materials_unlit"]}