{"asset":{"version":"2.0","generator":"GLTFExporter"},"scenes":[{"nodes":[0],"name":"AuxScene"}],"scene":0,"nodes":[{"mesh":0}],"bufferViews":[{"buffer":0,"byteOffset":0,"byteLength":6336,"target":34962,"byteStride":12},{"buffer":0,"byteOffset":6336,"byteLength":6336,"target":34962,"byteStride":12},{"buffer":0,"byteOffset":12672,"byteLength":8448,"target":34962,"byteStride":16},{"buffer":0,"byteOffset":21120,"byteLength":4224,"target":34962,"byteStride":8},{"buffer":0,"byteOffset":25344,"byteLength":4224,"target":34962,"byteStride":8},{"buffer":0,"byteOffset":29568,"byteLength":3168,"target":34963}],"buffers":[{"byteLength":32736,"uri":"data:application/octet-stream;base64,"}],"accessors":[{"bufferView":0,"componentType":5126,"count":528,"max":[13.71186637878418,3.0630600452423096,18.737565994262695],"min":[-7.962057113647461,-0.06317415833473206,-4.424077987670898],"type":"VEC3"},{"bufferView":1,"componentType":5126,"count":528,"max":[1,1,1],"min":[-1,-1,-1],"type":"VEC3"},{"bufferView":2,"componentType":5126,"count":528,"max":[1,1,1,1],"min":[-1,-1,-1,1],"type":"VEC4"},{"bufferView":3,"componentType":5126,"count":528,"max":[1,1],"min":[0,0],"type":"VEC2"},{"bufferView":4,"componentType":5126,"count":528,"max":[0.10546875,0.2025875747203827],"min":[3.1837157909997416e-11,0.1142578125],"type":"VEC2"},{"bufferView":5,"componentType":5125,"count":792,"max":[527],"min":[0],"type":"SCALAR"}],"materials":[{"pbrMetallicRoughness":{"metallicFactor":0,"roughnessFactor":0.9},"extensions":{"KHR_materials_unlit":{}}}],"meshes":[{"primitives":[{"mode":4,"attributes":{"POSITION":0,"NORMAL":1,"TANGENT":2,"TEXCOORD_0":3,"TEXCOORD_1":4},"indices":5,"material":0}]}],"extensionsUsed":["KHR_materials_unlit"]}