{"asset":{"version":"2.0","generator":"GLTFExporter"},"scenes":[{"nodes":[0],"name":"AuxScene"}],"scene":0,"nodes":[{"mesh":0}],"bufferViews":[{"buffer":0,"byteOffset":0,"byteLength":144,"target":34962,"byteStride":12},{"buffer":0,"byteOffset":144,"byteLength":144,"target":34962,"byteStride":12},{"buffer":0,"byteOffset":288,"byteLength":192,"target":34962,"byteStride":16},{"buffer":0,"byteOffset":480,"byteLength":96,"target":34962,"byteStride":8},{"buffer":0,"byteOffset":576,"byteLength":72,"target":34963}],"buffers":[{"byteLength":648,"uri":"data:application/octet-stream;base64,"}],"accessors":[{"bufferView":0,"componentType":5126,"count":12,"max":[54.78549575805664,47.425559997558594,62.27760314941406],"min":[7.107762813568115,3.1238632202148438,18.851354598999023],"type":"VEC3"},{"bufferView":1,"componentType":5126,"count":12,"max":[-0.3650495111942291,-0.1564340591430664,-0.6039972305297852],"min":[-0.7814831137657166,-0.484809547662735,-0.8990065455436707],"type":"VEC3"},{"bufferView":2,"componentType":5126,"count":12,"max":[-0.6115276217460632,0,0.7912230491638184,1],"min":[-0.9265289306640625,-3.7252858575698156e-9,0.3762236535549164,1],"type":"VEC4"},{"bufferView":3,"componentType":5126,"count":12,"max":[0.998046875,0.998046875],"min":[0.0009765625,0.0009765625],"type":"VEC2"},{"bufferView":4,"componentType":5125,"count":18,"max":[11],"min":[0],"type":"SCALAR"}],"materials":[{"pbrMetallicRoughness":{"metallicFactor":0,"roughnessFactor":0.9},"extensions":{"KHR_materials_unlit":{}}}],"meshes":[{"primitives":[{"mode":4,"attributes":{"POSITION":0,"NORMAL":1,"TANGENT":2,"TEXCOORD_0":3},"indices":4,"material":0}]}],"extensionsUsed":["KHR_materials_unlit"]}