{"asset":{"version":"2.0","generator":"GLTFExporter"},"scenes":[{"nodes":[0],"name":"AuxScene"}],"scene":0,"nodes":[{"mesh":0}],"bufferViews":[{"buffer":0,"byteOffset":0,"byteLength":1368,"target":34962,"byteStride":12},{"buffer":0,"byteOffset":1368,"byteLength":1368,"target":34962,"byteStride":12},{"buffer":0,"byteOffset":2736,"byteLength":1824,"target":34962,"byteStride":16},{"buffer":0,"byteOffset":4560,"byteLength":912,"target":34962,"byteStride":8},{"buffer":0,"byteOffset":5472,"byteLength":2304,"target":34963}],"buffers":[{"byteLength":7776,"uri":"data:application/octet-stream;base64,"}],"accessors":[{"bufferView":0,"componentType":5126,"count":114,"max":[0.005108108278363943,0.000019760131181101315,0.004999707918614149],"min":[-0.004891891498118639,-0.004980239551514387,-2.9206276508375595e-7],"type":"VEC3"},{"bufferView":1,"componentType":5126,"count":114,"max":[0.9732112288475037,0.9786254167556763,-0.08946692198514938],"min":[-0.9885047078132629,0.09999646991491318,-0.9933630228042603],"type":"VEC3"},{"bufferView":2,"componentType":5126,"count":114,"max":[1,0.18599000573158264,0.985806941986084,1],"min":[0.100368432700634,-0.17459915578365326,-0.9949433207511902,1],"type":"VEC4"},{"bufferView":3,"componentType":5126,"count":114,"max":[0.498706191778183,0.5009002089500427],"min":[-0.0009213685989379883,0.021755710244178772],"type":"VEC2"},{"bufferView":4,"componentType":5125,"count":576,"max":[113],"min":[0],"type":"SCALAR"}],"materials":[{"pbrMetallicRoughness":{"metallicFactor":0,"roughnessFactor":0.9},"extensions":{"KHR_materials_unlit":{}}}],"meshes":[{"primitives":[{"mode":4,"attributes":{"POSITION":0,"NORMAL":1,"TANGENT":2,"TEXCOORD_0":3},"indices":4,"material":0}]}],"extensionsUsed":["KHR_materials_unlit"]}