{"asset":{"version":"2.0","generator":"GLTFExporter"},"scenes":[{"nodes":[0],"name":"AuxScene"}],"scene":0,"nodes":[{"mesh":0}],"bufferViews":[{"buffer":0,"byteOffset":0,"byteLength":15012,"target":34962,"byteStride":12},{"buffer":0,"byteOffset":15012,"byteLength":15012,"target":34962,"byteStride":12},{"buffer":0,"byteOffset":30024,"byteLength":20016,"target":34962,"byteStride":16},{"buffer":0,"byteOffset":50040,"byteLength":10008,"target":34962,"byteStride":8},{"buffer":0,"byteOffset":60048,"byteLength":10008,"target":34962,"byteStride":8},{"buffer":0,"byteOffset":70056,"byteLength":21744,"target":34963}],"buffers":[{"byteLength":91800,"uri":"data:application/octet-stream;base64,"}],"accessors":[{"bufferView":0,"componentType":5126,"count":1251,"max":[0.002645495580509305,0.002645494183525443,0.001349203404970467],"min":[-0.002645494882017374,-0.002645496279001236,-0.0121917724609375],"type":"VEC3"},{"bufferView":1,"componentType":5126,"count":1251,"max":[1,1,1],"min":[-1,-1,-1],"type":"VEC3"},{"bufferView":2,"componentType":5126,"count":1251,"max":[0.9825271964073181,0.9975569248199463,0.9903774857521057,1],"min":[-0.9999979734420776,-0.9983478784561157,-1,1],"type":"VEC4"},{"bufferView":3,"componentType":5126,"count":1251,"max":[0.9880638122558594,0.9156851768493652],"min":[0.011936122551560402,0.011936122551560402],"type":"VEC2"},{"bufferView":4,"componentType":5126,"count":1251,"max":[0.9677734375,0.04701588675379753],"min":[0.9169921875,2.7465182905750396e-11],"type":"VEC2"},{"bufferView":5,"componentType":5125,"count":5436,"max":[1250],"min":[0],"type":"SCALAR"}],"materials":[{"pbrMetallicRoughness":{"metallicFactor":0,"roughnessFactor":0.9},"extensions":{"KHR_materials_unlit":{}}}],"meshes":[{"primitives":[{"mode":4,"attributes":{"POSITION":0,"NORMAL":1,"TANGENT":2,"TEXCOORD_0":3,"TEXCOORD_1":4},"indices":5,"material":0}]}],"extensionsUsed":["KHR_materials_unlit"]}