{"asset":{"version":"2.0","generator":"GLTFExporter"},"scenes":[{"nodes":[0],"name":"AuxScene"}],"scene":0,"nodes":[{"mesh":0}],"bufferViews":[{"buffer":0,"byteOffset":0,"byteLength":996,"target":34962,"byteStride":12},{"buffer":0,"byteOffset":996,"byteLength":996,"target":34962,"byteStride":12},{"buffer":0,"byteOffset":1992,"byteLength":1328,"target":34962,"byteStride":16},{"buffer":0,"byteOffset":3320,"byteLength":664,"target":34962,"byteStride":8},{"buffer":0,"byteOffset":3984,"byteLength":664,"target":34962,"byteStride":8},{"buffer":0,"byteOffset":4648,"byteLength":492,"target":34963}],"buffers":[{"byteLength":5140,"uri":"data:application/octet-stream;base64,"}],"accessors":[{"bufferView":0,"componentType":5126,"count":83,"max":[0.08558352291584015,-0.002716533374041319,0.19365394115447998],"min":[0.014396118931472301,-0.020095529034733772,0.09046697616577148],"type":"VEC3"},{"bufferView":1,"componentType":5126,"count":83,"max":[1,1,1],"min":[-1,0,-0.9999998807907104],"type":"VEC3"},{"bufferView":2,"componentType":5126,"count":83,"max":[0.012998519465327263,1,0,1],"min":[-1,-1,0,1],"type":"VEC4"},{"bufferView":3,"componentType":5126,"count":83,"max":[0.9931782484054565,0.9927200675010681],"min":[0.006821769289672375,0.00728002330288291],"type":"VEC2"},{"bufferView":4,"componentType":5126,"count":83,"max":[0.9224440455436707,0.6546168327331543],"min":[0.6519362330436707,0.43570512533187866],"type":"VEC2"},{"bufferView":5,"componentType":5125,"count":123,"max":[82],"min":[0],"type":"SCALAR"}],"materials":[{"pbrMetallicRoughness":{"metallicFactor":0,"roughnessFactor":0.9},"extensions":{"KHR_materials_unlit":{}}}],"meshes":[{"primitives":[{"mode":4,"attributes":{"POSITION":0,"NORMAL":1,"TANGENT":2,"TEXCOORD_0":3,"TEXCOORD_1":4},"indices":5,"material":0}]}],"extensionsUsed":["KHR_materials_unlit"]}