{"asset":{"version":"2.0","generator":"GLTFExporter"},"scenes":[{"nodes":[0],"name":"AuxScene"}],"scene":0,"nodes":[{"mesh":0}],"bufferViews":[{"buffer":0,"byteOffset":0,"byteLength":192,"target":34962,"byteStride":12},{"buffer":0,"byteOffset":192,"byteLength":192,"target":34962,"byteStride":12},{"buffer":0,"byteOffset":384,"byteLength":256,"target":34962,"byteStride":16},{"buffer":0,"byteOffset":640,"byteLength":128,"target":34962,"byteStride":8},{"buffer":0,"byteOffset":768,"byteLength":96,"target":34963}],"buffers":[{"byteLength":864,"uri":"data:application/octet-stream;base64,"}],"accessors":[{"bufferView":0,"componentType":5126,"count":16,"max":[13.664538383483887,3.035749912261963,18.69353485107422],"min":[-7.914728164672852,-0.006723945029079914,-4.376749038696289],"type":"VEC3"},{"bufferView":1,"componentType":5126,"count":16,"max":[1,1.2246402351402674e-16,1],"min":[-1,-7.105427357601002e-15,-3.8941436741879443e-7],"type":"VEC3"},{"bufferView":2,"componentType":5126,"count":16,"max":[1,-1.6292068494294654e-7,1,1],"min":[-3.8941436741879443e-7,-1.6292071336465597e-7,-1,1],"type":"VEC4"},{"bufferView":3,"componentType":5126,"count":16,"max":[1,1],"min":[0,0],"type":"VEC2"},{"bufferView":4,"componentType":5125,"count":24,"max":[15],"min":[0],"type":"SCALAR"}],"materials":[{"pbrMetallicRoughness":{"metallicFactor":0,"roughnessFactor":0.9},"extensions":{"KHR_materials_unlit":{}}}],"meshes":[{"primitives":[{"mode":4,"attributes":{"POSITION":0,"NORMAL":1,"TANGENT":2,"TEXCOORD_0":3},"indices":4,"material":0}]}],"extensionsUsed":["KHR_materials_unlit"]}