{"asset":{"version":"2.0","generator":"GLTFExporter"},"scenes":[{"nodes":[0],"name":"AuxScene"}],"scene":0,"nodes":[{"mesh":0}],"bufferViews":[{"buffer":0,"byteOffset":0,"byteLength":30624,"target":34962,"byteStride":12},{"buffer":0,"byteOffset":30624,"byteLength":30624,"target":34962,"byteStride":12},{"buffer":0,"byteOffset":61248,"byteLength":40832,"target":34962,"byteStride":16},{"buffer":0,"byteOffset":102080,"byteLength":20416,"target":34962,"byteStride":8},{"buffer":0,"byteOffset":122496,"byteLength":20416,"target":34962,"byteStride":8},{"buffer":0,"byteOffset":142912,"byteLength":25152,"target":34963}],"buffers":[{"byteLength":168064,"uri":"data:application/octet-stream;base64,"}],"accessors":[{"bufferView":0,"componentType":5126,"count":2552,"max":[0.3240281939506531,0.7629213333129883,17.305898666381836],"min":[-1.5793461799621582,0.24402272701263428,10.653526306152344],"type":"VEC3"},{"bufferView":1,"componentType":5126,"count":2552,"max":[1,1,1],"min":[-1,-1,-1],"type":"VEC3"},{"bufferView":2,"componentType":5126,"count":2552,"max":[1,1,1,1],"min":[-1,-1,-1,1],"type":"VEC4"},{"bufferView":3,"componentType":5126,"count":2552,"max":[0.9896234273910522,0.996738612651825],"min":[0.0032613431103527546,0.0032613431103527546],"type":"VEC2"},{"bufferView":4,"componentType":5126,"count":2552,"max":[0.083984375,0.6405630111694336],"min":[-2.6829510835213455e-11,0.5565786361694336],"type":"VEC2"},{"bufferView":5,"componentType":5125,"count":6288,"max":[2551],"min":[0],"type":"SCALAR"}],"materials":[{"pbrMetallicRoughness":{"metallicFactor":0,"roughnessFactor":0.9},"extensions":{"KHR_materials_unlit":{}}}],"meshes":[{"primitives":[{"mode":4,"attributes":{"POSITION":0,"NORMAL":1,"TANGENT":2,"TEXCOORD_0":3,"TEXCOORD_1":4},"indices":5,"material":0}]}],"extensionsUsed":["KHR_materials_unlit"]}