{"asset":{"version":"2.0","generator":"GLTFExporter"},"scenes":[{"nodes":[0],"name":"AuxScene"}],"scene":0,"nodes":[{"mesh":0}],"bufferViews":[{"buffer":0,"byteOffset":0,"byteLength":3036,"target":34962,"byteStride":12},{"buffer":0,"byteOffset":3036,"byteLength":3036,"target":34962,"byteStride":12},{"buffer":0,"byteOffset":6072,"byteLength":4048,"target":34962,"byteStride":16},{"buffer":0,"byteOffset":10120,"byteLength":2024,"target":34962,"byteStride":8},{"buffer":0,"byteOffset":12144,"byteLength":2024,"target":34962,"byteStride":8},{"buffer":0,"byteOffset":14168,"byteLength":2160,"target":34963}],"buffers":[{"byteLength":16328,"uri":"data:application/octet-stream;base64,"}],"accessors":[{"bufferView":0,"componentType":5126,"count":253,"max":[0.003403214504942298,0.003403214504942298,0.00013898425095248967],"min":[-0.003403214504942298,-0.003403214504942298,-0.017326857894659042],"type":"VEC3"},{"bufferView":1,"componentType":5126,"count":253,"max":[1,1,1],"min":[-1,-1,-1],"type":"VEC3"},{"bufferView":2,"componentType":5126,"count":253,"max":[1,1,0.9741451144218445,1],"min":[-1,-1,-0.9973949193954468,1],"type":"VEC4"},{"bufferView":3,"componentType":5126,"count":253,"max":[0.9061770439147949,0.9582861065864563],"min":[0.0417138934135437,0.0417138934135437],"type":"VEC2"},{"bufferView":4,"componentType":5126,"count":253,"max":[0.07002478092908859,0.9896841049194336],"min":[2.531787973714117e-11,0.9164419174194336],"type":"VEC2"},{"bufferView":5,"componentType":5125,"count":540,"max":[252],"min":[0],"type":"SCALAR"}],"materials":[{"pbrMetallicRoughness":{"metallicFactor":0,"roughnessFactor":0.9},"extensions":{"KHR_materials_unlit":{}}}],"meshes":[{"primitives":[{"mode":4,"attributes":{"POSITION":0,"NORMAL":1,"TANGENT":2,"TEXCOORD_0":3,"TEXCOORD_1":4},"indices":5,"material":0}]}],"extensionsUsed":["KHR_materials_unlit"]}