{"asset":{"version":"2.0","generator":"GLTFExporter"},"scenes":[{"nodes":[0],"name":"AuxScene"}],"scene":0,"nodes":[{"mesh":0}],"bufferViews":[{"buffer":0,"byteOffset":0,"byteLength":27084,"target":34962,"byteStride":12},{"buffer":0,"byteOffset":27084,"byteLength":27084,"target":34962,"byteStride":12},{"buffer":0,"byteOffset":54168,"byteLength":36112,"target":34962,"byteStride":16},{"buffer":0,"byteOffset":90280,"byteLength":18056,"target":34962,"byteStride":8},{"buffer":0,"byteOffset":108336,"byteLength":18056,"target":34962,"byteStride":8},{"buffer":0,"byteOffset":126392,"byteLength":22896,"target":34963}],"buffers":[{"byteLength":149288,"uri":"data:application/octet-stream;base64,"}],"accessors":[{"bufferView":0,"componentType":5126,"count":2257,"max":[-4.6564741134643555,1.4795563220977783,-2.396204710006714],"min":[-5.0196051597595215,1.1797081232070923,-2.6564602851867676],"type":"VEC3"},{"bufferView":1,"componentType":5126,"count":2257,"max":[0.9754658937454224,0.9999952912330627,0.896491527557373],"min":[-0.9753366708755493,-0.9999877214431763,-0.9999995231628418],"type":"VEC3"},{"bufferView":2,"componentType":5126,"count":2257,"max":[0.9999098777770996,0.9999963641166687,0.9999984502792358,1],"min":[-0.9895081520080566,-0.9999964833259583,-0.9999970197677612,1],"type":"VEC4"},{"bufferView":3,"componentType":5126,"count":2257,"max":[0.7548417448997498,0.6991574168205261],"min":[0.0010176213691011071,0.0010176213691011071],"type":"VEC2"},{"bufferView":4,"componentType":5126,"count":2257,"max":[0.973962664604187,0.3794976472854614],"min":[0.8949732780456543,0.3003960847854614],"type":"VEC2"},{"bufferView":5,"componentType":5125,"count":5724,"max":[2256],"min":[0],"type":"SCALAR"}],"materials":[{"pbrMetallicRoughness":{"metallicFactor":0,"roughnessFactor":0.9},"extensions":{"KHR_materials_unlit":{}}}],"meshes":[{"primitives":[{"mode":4,"attributes":{"POSITION":0,"NORMAL":1,"TANGENT":2,"TEXCOORD_0":3,"TEXCOORD_1":4},"indices":5,"material":0}]}],"extensionsUsed":["KHR_materials_unlit"]}