{"asset":{"version":"2.0","generator":"GLTFExporter"},"scenes":[{"nodes":[0],"name":"AuxScene"}],"scene":0,"nodes":[{"mesh":0}],"bufferViews":[{"buffer":0,"byteOffset":0,"byteLength":2172,"target":34962,"byteStride":12},{"buffer":0,"byteOffset":2172,"byteLength":2172,"target":34962,"byteStride":12},{"buffer":0,"byteOffset":4344,"byteLength":2896,"target":34962,"byteStride":16},{"buffer":0,"byteOffset":7240,"byteLength":1448,"target":34962,"byteStride":8},{"buffer":0,"byteOffset":8688,"byteLength":1448,"target":34962,"byteStride":8},{"buffer":0,"byteOffset":10136,"byteLength":3024,"target":34963}],"buffers":[{"byteLength":13160,"uri":"data:application/octet-stream;base64,"}],"accessors":[{"bufferView":0,"componentType":5126,"count":181,"max":[0.06997639685869217,0.06997639685869217,0.03400666266679764],"min":[-0.06997639685869217,-0.06997639685869217,-0.03761788830161095],"type":"VEC3"},{"bufferView":1,"componentType":5126,"count":181,"max":[0.9627121686935425,0.962712287902832,0.7041024565696716],"min":[-0.9627121686935425,-0.962712287902832,-1],"type":"VEC3"},{"bufferView":2,"componentType":5126,"count":181,"max":[0.039127103984355927,0.7090964913368225,0.9573401808738708,1],"min":[-0.9941257238388062,-0.8818582892417908,-0.9557276368141174,1],"type":"VEC4"},{"bufferView":3,"componentType":5126,"count":181,"max":[0.859486997127533,0.9998636841773987],"min":[0.00013633162598125637,0.03557829558849335],"type":"VEC2"},{"bufferView":4,"componentType":5126,"count":181,"max":[0.9378791451454163,0.07240650802850723],"min":[0.9169921875,0.04896901175379753],"type":"VEC2"},{"bufferView":5,"componentType":5125,"count":756,"max":[180],"min":[0],"type":"SCALAR"}],"materials":[{"pbrMetallicRoughness":{"metallicFactor":0,"roughnessFactor":0.9},"extensions":{"KHR_materials_unlit":{}}}],"meshes":[{"primitives":[{"mode":4,"attributes":{"POSITION":0,"NORMAL":1,"TANGENT":2,"TEXCOORD_0":3,"TEXCOORD_1":4},"indices":5,"material":0}]}],"extensionsUsed":["KHR_materials_unlit"]}