{"asset":{"version":"2.0","generator":"GLTFExporter"},"scenes":[{"nodes":[0],"name":"AuxScene"}],"scene":0,"nodes":[{"mesh":0}],"bufferViews":[{"buffer":0,"byteOffset":0,"byteLength":1248,"target":34962,"byteStride":12},{"buffer":0,"byteOffset":1248,"byteLength":1248,"target":34962,"byteStride":12},{"buffer":0,"byteOffset":2496,"byteLength":1664,"target":34962,"byteStride":16},{"buffer":0,"byteOffset":4160,"byteLength":832,"target":34962,"byteStride":8},{"buffer":0,"byteOffset":4992,"byteLength":832,"target":34962,"byteStride":8},{"buffer":0,"byteOffset":5824,"byteLength":1248,"target":34962,"byteStride":12},{"buffer":0,"byteOffset":7072,"byteLength":768,"target":34963}],"buffers":[{"byteLength":7840,"uri":"data:application/octet-stream;base64,"}],"accessors":[{"bufferView":0,"componentType":5126,"count":104,"max":[0.06558609753847122,0.0547913983464241,0.0142000000923872],"min":[-0.07489999383687973,-0.07382060587406158,-0.014199999161064625],"type":"VEC3"},{"bufferView":1,"componentType":5126,"count":104,"max":[1,1,1],"min":[-1,-1,-2.798340972276492e-7],"type":"VEC3"},{"bufferView":2,"componentType":5126,"count":104,"max":[1,1,1,1],"min":[-1,-1,-1,1],"type":"VEC4"},{"bufferView":3,"componentType":5126,"count":104,"max":[0.8865481019020081,0.9942580461502075],"min":[0.005742052104324102,0.005742052104324102],"type":"VEC2"},{"bufferView":4,"componentType":5126,"count":104,"max":[0.6856821775436401,0.76953125],"min":[-2.2489232698319483e-11,-2.2489232698319483e-11],"type":"VEC2"},{"bufferView":5,"componentType":5126,"count":104,"max":[1,1,1],"min":[1,1,1],"type":"VEC3"},{"bufferView":6,"componentType":5125,"count":192,"max":[103],"min":[0],"type":"SCALAR"}],"materials":[{"pbrMetallicRoughness":{"metallicFactor":0,"roughnessFactor":0.9},"extensions":{"KHR_materials_unlit":{}}}],"meshes":[{"primitives":[{"mode":4,"attributes":{"POSITION":0,"NORMAL":1,"TANGENT":2,"TEXCOORD_0":3,"TEXCOORD_1":4,"COLOR_0":5},"indices":6,"material":0}]}],"extensionsUsed":["KHR_materials_unlit"]}