{"asset":{"version":"2.0","generator":"GLTFExporter"},"scenes":[{"nodes":[0]}],"scene":0,"nodes":[{"mesh":0}],"bufferViews":[{"buffer":0,"byteOffset":0,"byteLength":1152,"target":34962,"byteStride":12},{"buffer":0,"byteOffset":1152,"byteLength":1152,"target":34962,"byteStride":12},{"buffer":0,"byteOffset":2304,"byteLength":1536,"target":34962,"byteStride":16},{"buffer":0,"byteOffset":3840,"byteLength":768,"target":34962,"byteStride":8},{"buffer":0,"byteOffset":4608,"byteLength":768,"target":34962,"byteStride":8},{"buffer":0,"byteOffset":5376,"byteLength":576,"target":34963}],"buffers":[{"byteLength":5952,"uri":"data:application/octet-stream;base64,"}],"accessors":[{"bufferView":0,"componentType":5126,"count":96,"max":[4.012650966644287,2.200740337371826,-2.603278636932373],"min":[1.070349097251892,1.0122594833374023,-2.7010092735290527],"type":"VEC3"},{"bufferView":1,"componentType":5126,"count":96,"max":[1,1,1],"min":[-1,-1,-1],"type":"VEC3"},{"bufferView":2,"componentType":5126,"count":96,"max":[1,1,1.3949149035852315e-7,1],"min":[-0.0003316536021884531,-1,-1.3949149035852315e-7,1],"type":"VEC4"},{"bufferView":3,"componentType":5126,"count":96,"max":[0.998046875,0.5185546875],"min":[0.0009765625,0.0009765625],"type":"VEC2"},{"bufferView":4,"componentType":5126,"count":96,"max":[0.1904296875,0.9144888520240784],"min":[-2.1829871243994603e-11,0.7241396903991699],"type":"VEC2"},{"bufferView":5,"componentType":5125,"count":144,"max":[95],"min":[0],"type":"SCALAR"}],"materials":[{"pbrMetallicRoughness":{"metallicFactor":0,"roughnessFactor":0.9},"extensions":{"KHR_materials_unlit":{}}}],"meshes":[{"primitives":[{"mode":4,"attributes":{"POSITION":0,"NORMAL":1,"TANGENT":2,"TEXCOORD_0":3,"TEXCOORD_1":4},"indices":5,"material":0}]}],"extensionsUsed":["KHR_materials_unlit"]}