{"asset":{"version":"2.0","generator":"GLTFExporter"},"scenes":[{"nodes":[0],"name":"AuxScene"}],"scene":0,"nodes":[{"mesh":0}],"bufferViews":[{"buffer":0,"byteOffset":0,"byteLength":528,"target":34962,"byteStride":12},{"buffer":0,"byteOffset":528,"byteLength":528,"target":34962,"byteStride":12},{"buffer":0,"byteOffset":1056,"byteLength":704,"target":34962,"byteStride":16},{"buffer":0,"byteOffset":1760,"byteLength":352,"target":34962,"byteStride":8},{"buffer":0,"byteOffset":2112,"byteLength":264,"target":34963}],"buffers":[{"byteLength":2376,"uri":"data:application/octet-stream;base64,"}],"accessors":[{"bufferView":0,"componentType":5126,"count":44,"max":[0.13091805577278137,0.036843180656433105,0.012479607947170734],"min":[0.029727105051279068,-0.03316168859601021,-0.014674975536763668],"type":"VEC3"},{"bufferView":1,"componentType":5126,"count":44,"max":[0,0,0],"min":[-1,-1,-2.445461859679199e-7],"type":"VEC3"},{"bufferView":2,"componentType":5126,"count":44,"max":[1,0,0,1],"min":[1,0,0,1],"type":"VEC4"},{"bufferView":3,"componentType":5126,"count":44,"max":[0,0],"min":[0,0],"type":"VEC2"},{"bufferView":4,"componentType":5125,"count":66,"max":[43],"min":[0],"type":"SCALAR"}],"materials":[{"pbrMetallicRoughness":{"metallicFactor":0,"roughnessFactor":0.9},"extensions":{"KHR_materials_unlit":{}}}],"meshes":[{"primitives":[{"mode":4,"attributes":{"POSITION":0,"NORMAL":1,"TANGENT":2,"TEXCOORD_0":3},"indices":4,"material":0}]}],"extensionsUsed":["KHR_materials_unlit"]}