{"asset":{"version":"2.0","generator":"GLTFExporter"},"scenes":[{"nodes":[0],"name":"AuxScene"}],"scene":0,"nodes":[{"mesh":0}],"bufferViews":[{"buffer":0,"byteOffset":0,"byteLength":9996,"target":34962,"byteStride":12},{"buffer":0,"byteOffset":9996,"byteLength":9996,"target":34962,"byteStride":12},{"buffer":0,"byteOffset":19992,"byteLength":13328,"target":34962,"byteStride":16},{"buffer":0,"byteOffset":33320,"byteLength":6664,"target":34962,"byteStride":8},{"buffer":0,"byteOffset":39984,"byteLength":6664,"target":34962,"byteStride":8},{"buffer":0,"byteOffset":46648,"byteLength":17928,"target":34963}],"buffers":[{"byteLength":64576,"uri":"data:application/octet-stream;base64,"}],"accessors":[{"bufferView":0,"componentType":5126,"count":833,"max":[0.47629743814468384,0.5333020091056824,-0.025589456781744957],"min":[-0.4889829158782959,-0.5873913764953613,-0.8479614853858948],"type":"VEC3"},{"bufferView":1,"componentType":5126,"count":833,"max":[0.9999843835830688,0.9999957084655762,0.9999831914901733],"min":[-0.9999483823776245,-0.9997439980506897,-0.9989270567893982],"type":"VEC3"},{"bufferView":2,"componentType":5126,"count":833,"max":[0.7822728157043457,0.9999964237213135,0.996056079864502,1],"min":[-0.6763729453086853,-0.9980400204658508,-0.9999197721481323,1],"type":"VEC4"},{"bufferView":3,"componentType":5126,"count":833,"max":[0.7669919729232788,0.9998854398727417],"min":[0.00011461923713795841,0.00011461923713795841],"type":"VEC2"},{"bufferView":4,"componentType":5126,"count":833,"max":[0.4258265495300293,0.5991270542144775],"min":[0.3359375,0.48193955421447754],"type":"VEC2"},{"bufferView":5,"componentType":5125,"count":4482,"max":[832],"min":[0],"type":"SCALAR"}],"materials":[{"pbrMetallicRoughness":{"metallicFactor":0,"roughnessFactor":0.9},"extensions":{"KHR_materials_unlit":{}}}],"meshes":[{"primitives":[{"mode":4,"attributes":{"POSITION":0,"NORMAL":1,"TANGENT":2,"TEXCOORD_0":3,"TEXCOORD_1":4},"indices":5,"material":0}]}],"extensionsUsed":["KHR_materials_unlit"]}