{"asset":{"version":"2.0","generator":"GLTFExporter"},"scenes":[{"nodes":[0],"name":"AuxScene"}],"scene":0,"nodes":[{"mesh":0}],"bufferViews":[{"buffer":0,"byteOffset":0,"byteLength":2088,"target":34962,"byteStride":12},{"buffer":0,"byteOffset":2088,"byteLength":2088,"target":34962,"byteStride":12},{"buffer":0,"byteOffset":4176,"byteLength":2784,"target":34962,"byteStride":16},{"buffer":0,"byteOffset":6960,"byteLength":1392,"target":34962,"byteStride":8},{"buffer":0,"byteOffset":8352,"byteLength":1392,"target":34962,"byteStride":8},{"buffer":0,"byteOffset":9744,"byteLength":2088,"target":34962,"byteStride":12},{"buffer":0,"byteOffset":11832,"byteLength":1200,"target":34963}],"buffers":[{"byteLength":13032,"uri":"data:application/octet-stream;base64,"}],"accessors":[{"bufferView":0,"componentType":5126,"count":174,"max":[0.055199235677719116,0.05322790890932083,0.014199999161064625],"min":[-0.07089999318122864,-0.025338010862469673,0.01269999984651804],"type":"VEC3"},{"bufferView":1,"componentType":5126,"count":174,"max":[1,1,0],"min":[-1,-1,-1],"type":"VEC3"},{"bufferView":2,"componentType":5126,"count":174,"max":[1,1,1,1],"min":[-1,-1,0,1],"type":"VEC4"},{"bufferView":3,"componentType":5126,"count":174,"max":[0.9914982318878174,0.4207383692264557],"min":[0.008501831442117691,0.008501831442117691],"type":"VEC2"},{"bufferView":4,"componentType":5126,"count":174,"max":[0.794921875,0.0737169086933136],"min":[0.619140625,4.168443368257613e-12],"type":"VEC2"},{"bufferView":5,"componentType":5126,"count":174,"max":[1,1,1],"min":[0.9960784316062927,0.9960784316062927,0.9960784316062927],"type":"VEC3"},{"bufferView":6,"componentType":5125,"count":300,"max":[173],"min":[0],"type":"SCALAR"}],"materials":[{"pbrMetallicRoughness":{"metallicFactor":0,"roughnessFactor":0.9},"extensions":{"KHR_materials_unlit":{}}}],"meshes":[{"primitives":[{"mode":4,"attributes":{"POSITION":0,"NORMAL":1,"TANGENT":2,"TEXCOORD_0":3,"TEXCOORD_1":4,"COLOR_0":5},"indices":6,"material":0}]}],"extensionsUsed":["KHR_materials_unlit"]}