{"asset":{"version":"2.0","generator":"GLTFExporter"},"scenes":[{"nodes":[0],"name":"AuxScene"}],"scene":0,"nodes":[{"mesh":0}],"bufferViews":[{"buffer":0,"byteOffset":0,"byteLength":44232,"target":34962,"byteStride":12},{"buffer":0,"byteOffset":44232,"byteLength":44232,"target":34962,"byteStride":12},{"buffer":0,"byteOffset":88464,"byteLength":58976,"target":34962,"byteStride":16},{"buffer":0,"byteOffset":147440,"byteLength":29488,"target":34962,"byteStride":8},{"buffer":0,"byteOffset":176928,"byteLength":29488,"target":34962,"byteStride":8},{"buffer":0,"byteOffset":206416,"byteLength":52776,"target":34963}],"buffers":[{"byteLength":259192,"uri":"data:application/octet-stream;base64,"}],"accessors":[{"bufferView":0,"componentType":5126,"count":3686,"max":[4.686458587646484,1.6849888563156128,4.135618686676025],"min":[-0.5149644017219543,0.031701866537332535,-2.3156442642211914],"type":"VEC3"},{"bufferView":1,"componentType":5126,"count":3686,"max":[0.9998604655265808,1,0.999860405921936],"min":[-0.999860405921936,-1,-0.999860405921936],"type":"VEC3"},{"bufferView":2,"componentType":5126,"count":3686,"max":[0.9999945759773254,1,0.9997318387031555,1],"min":[-0.9998602867126465,-0.9978109002113342,-0.9999950528144836,1],"type":"VEC4"},{"bufferView":3,"componentType":5126,"count":3686,"max":[0.9996057152748108,0.9986671209335327],"min":[0.0003943661868106574,0.0003943661868106574],"type":"VEC2"},{"bufferView":4,"componentType":5126,"count":3686,"max":[0.427734375,0.47998642921447754],"min":[0.3359375,0.38963380455970764],"type":"VEC2"},{"bufferView":5,"componentType":5125,"count":13194,"max":[3685],"min":[0],"type":"SCALAR"}],"materials":[{"pbrMetallicRoughness":{"metallicFactor":0,"roughnessFactor":0.9},"extensions":{"KHR_materials_unlit":{}}}],"meshes":[{"primitives":[{"mode":4,"attributes":{"POSITION":0,"NORMAL":1,"TANGENT":2,"TEXCOORD_0":3,"TEXCOORD_1":4},"indices":5,"material":0}]}],"extensionsUsed":["KHR_materials_unlit"]}