{"asset":{"version":"2.0","generator":"GLTFExporter"},"scenes":[{"nodes":[0],"name":"AuxScene"}],"scene":0,"nodes":[{"mesh":0}],"bufferViews":[{"buffer":0,"byteOffset":0,"byteLength":192,"target":34962,"byteStride":12},{"buffer":0,"byteOffset":192,"byteLength":192,"target":34962,"byteStride":12},{"buffer":0,"byteOffset":384,"byteLength":256,"target":34962,"byteStride":16},{"buffer":0,"byteOffset":640,"byteLength":128,"target":34962,"byteStride":8},{"buffer":0,"byteOffset":768,"byteLength":128,"target":34962,"byteStride":8},{"buffer":0,"byteOffset":896,"byteLength":192,"target":34962,"byteStride":12},{"buffer":0,"byteOffset":1088,"byteLength":168,"target":34963}],"buffers":[{"byteLength":1256,"uri":"data:application/octet-stream;base64,"}],"accessors":[{"bufferView":0,"componentType":5126,"count":16,"max":[5.6600022315979,5.474997520446777,1.4199999570846558],"min":[-7.089999675750732,-2.5338010787963867,1.4199999570846558],"type":"VEC3"},{"bufferView":1,"componentType":5126,"count":16,"max":[0,0,-1],"min":[0,0,-1],"type":"VEC3"},{"bufferView":2,"componentType":5126,"count":16,"max":[-1,0,0,1],"min":[-1,0,0,1],"type":"VEC4"},{"bufferView":3,"componentType":5126,"count":16,"max":[0.9992087483406067,0.6279380917549133],"min":[0.000791299098636955,0.000791299098636955],"type":"VEC2"},{"bufferView":4,"componentType":5126,"count":16,"max":[0.6171875,0.38768067955970764],"min":[1.7586220674159492e-11,1.7586220674159492e-11],"type":"VEC2"},{"bufferView":5,"componentType":5126,"count":16,"max":[1,1,1],"min":[1,1,1],"type":"VEC3"},{"bufferView":6,"componentType":5125,"count":42,"max":[15],"min":[0],"type":"SCALAR"}],"materials":[{"pbrMetallicRoughness":{"metallicFactor":0,"roughnessFactor":0.9},"extensions":{"KHR_materials_unlit":{}}}],"meshes":[{"primitives":[{"mode":4,"attributes":{"POSITION":0,"NORMAL":1,"TANGENT":2,"TEXCOORD_0":3,"TEXCOORD_1":4,"COLOR_0":5},"indices":6,"material":0}]}],"extensionsUsed":["KHR_materials_unlit"]}