{"asset":{"version":"2.0","generator":"GLTFExporter"},"scenes":[{"nodes":[0],"name":"AuxScene"}],"scene":0,"nodes":[{"mesh":0}],"bufferViews":[{"buffer":0,"byteOffset":0,"byteLength":10896,"target":34962,"byteStride":12},{"buffer":0,"byteOffset":10896,"byteLength":10896,"target":34962,"byteStride":12},{"buffer":0,"byteOffset":21792,"byteLength":14528,"target":34962,"byteStride":16},{"buffer":0,"byteOffset":36320,"byteLength":7264,"target":34962,"byteStride":8},{"buffer":0,"byteOffset":43584,"byteLength":7264,"target":34962,"byteStride":8},{"buffer":0,"byteOffset":50848,"byteLength":9168,"target":34963}],"buffers":[{"byteLength":60016,"uri":"data:application/octet-stream;base64,"}],"accessors":[{"bufferView":0,"componentType":5126,"count":908,"max":[0.5038036704063416,0.5050135850906372,-0.24991543591022491],"min":[-0.5061962604522705,-0.5049864053726196,-0.26991546154022217],"type":"VEC3"},{"bufferView":1,"componentType":5126,"count":908,"max":[1,1,1],"min":[-1,-1,-1],"type":"VEC3"},{"bufferView":2,"componentType":5126,"count":908,"max":[1,1,0.7070879340171814,1],"min":[-1,-1,-0.7071022391319275,1],"type":"VEC4"},{"bufferView":3,"componentType":5126,"count":908,"max":[0.933392345905304,0.9936832189559937],"min":[0.00521509675309062,0.00521509675309062],"type":"VEC2"},{"bufferView":4,"componentType":5126,"count":908,"max":[0.49905648827552795,0.9150390625],"min":[0.3642578125,0.771484375],"type":"VEC2"},{"bufferView":5,"componentType":5125,"count":2292,"max":[907],"min":[0],"type":"SCALAR"}],"materials":[{"pbrMetallicRoughness":{"metallicFactor":0,"roughnessFactor":0.9},"extensions":{"KHR_materials_unlit":{}}}],"meshes":[{"primitives":[{"mode":4,"attributes":{"POSITION":0,"NORMAL":1,"TANGENT":2,"TEXCOORD_0":3,"TEXCOORD_1":4},"indices":5,"material":0}]}],"extensionsUsed":["KHR_materials_unlit"]}