{"asset":{"version":"2.0","generator":"GLTFExporter"},"scenes":[{"nodes":[0],"name":"AuxScene"}],"scene":0,"nodes":[{"mesh":0}],"bufferViews":[{"buffer":0,"byteOffset":0,"byteLength":192,"target":34962,"byteStride":12},{"buffer":0,"byteOffset":192,"byteLength":192,"target":34962,"byteStride":12},{"buffer":0,"byteOffset":384,"byteLength":256,"target":34962,"byteStride":16},{"buffer":0,"byteOffset":640,"byteLength":128,"target":34962,"byteStride":8},{"buffer":0,"byteOffset":768,"byteLength":128,"target":34962,"byteStride":8},{"buffer":0,"byteOffset":896,"byteLength":96,"target":34963}],"buffers":[{"byteLength":992,"uri":"data:application/octet-stream;base64,"}],"accessors":[{"bufferView":0,"componentType":5126,"count":16,"max":[0.008999999612569809,-0.00012802932178601623,0.010499398224055767],"min":[-0.008999999612569809,-0.00019999999494757503,-0.010499998927116394],"type":"VEC3"},{"bufferView":1,"componentType":5126,"count":16,"max":[0.9682689905166626,-0.2499101758003235,0],"min":[-0.9682689905166626,-1,0],"type":"VEC3"},{"bufferView":2,"componentType":5126,"count":16,"max":[-0.24972163140773773,0.9675387144088745,0,1],"min":[-1,-0.9675391316413879,-0.03883726894855499,1],"type":"VEC4"},{"bufferView":3,"componentType":5126,"count":16,"max":[0.8904709815979004,0.999905526638031],"min":[0.00009435087122255936,0.00009435087122255936],"type":"VEC2"},{"bufferView":4,"componentType":5126,"count":16,"max":[0.2998046875,0.9331828951835632],"min":[0.1923828125,0.832621693611145],"type":"VEC2"},{"bufferView":5,"componentType":5125,"count":24,"max":[15],"min":[0],"type":"SCALAR"}],"materials":[{"pbrMetallicRoughness":{"metallicFactor":0,"roughnessFactor":0.9},"extensions":{"KHR_materials_unlit":{}}}],"meshes":[{"primitives":[{"mode":4,"attributes":{"POSITION":0,"NORMAL":1,"TANGENT":2,"TEXCOORD_0":3,"TEXCOORD_1":4},"indices":5,"material":0}]}],"extensionsUsed":["KHR_materials_unlit"]}