{"asset":{"version":"2.0","generator":"GLTFExporter"},"scenes":[{"nodes":[0],"name":"AuxScene"}],"scene":0,"nodes":[{"mesh":0}],"bufferViews":[{"buffer":0,"byteOffset":0,"byteLength":96,"target":34962,"byteStride":12},{"buffer":0,"byteOffset":96,"byteLength":96,"target":34962,"byteStride":12},{"buffer":0,"byteOffset":192,"byteLength":128,"target":34962,"byteStride":16},{"buffer":0,"byteOffset":320,"byteLength":64,"target":34962,"byteStride":8},{"buffer":0,"byteOffset":384,"byteLength":64,"target":34962,"byteStride":8},{"buffer":0,"byteOffset":448,"byteLength":48,"target":34963}],"buffers":[{"byteLength":496,"uri":"data:application/octet-stream;base64,"}],"accessors":[{"bufferView":0,"componentType":5126,"count":8,"max":[0.16594178974628448,-0.012458128854632378,0.0045433188788592815],"min":[0.10865810513496399,-0.041362036019563675,-0.04531063511967659],"type":"VEC3"},{"bufferView":1,"componentType":5126,"count":8,"max":[0,1,0],"min":[-0.9999970197677612,-0.0024304999969899654,-1.669704090545565e-7],"type":"VEC3"},{"bufferView":2,"componentType":5126,"count":8,"max":[0.002430500229820609,0,0,1],"min":[-1,-0.9999970197677612,0,1],"type":"VEC4"},{"bufferView":3,"componentType":5126,"count":8,"max":[0.9961898922920227,0.5778370499610901],"min":[0.003810086054727435,0.003810086054727435],"type":"VEC2"},{"bufferView":4,"componentType":5126,"count":8,"max":[0.30037376284599304,0.10452429950237274],"min":[0.11092063039541245,1.5015810816976227e-10],"type":"VEC2"},{"bufferView":5,"componentType":5125,"count":12,"max":[7],"min":[0],"type":"SCALAR"}],"materials":[{"pbrMetallicRoughness":{"metallicFactor":0,"roughnessFactor":0.9},"extensions":{"KHR_materials_unlit":{}}}],"meshes":[{"primitives":[{"mode":4,"attributes":{"POSITION":0,"NORMAL":1,"TANGENT":2,"TEXCOORD_0":3,"TEXCOORD_1":4},"indices":5,"material":0}]}],"extensionsUsed":["KHR_materials_unlit"]}