{"asset":{"version":"2.0","generator":"GLTFExporter"},"scenes":[{"nodes":[0],"name":"AuxScene"}],"scene":0,"nodes":[{"mesh":0}],"bufferViews":[{"buffer":0,"byteOffset":0,"byteLength":1152,"target":34962,"byteStride":12},{"buffer":0,"byteOffset":1152,"byteLength":1152,"target":34962,"byteStride":12},{"buffer":0,"byteOffset":2304,"byteLength":1536,"target":34962,"byteStride":16},{"buffer":0,"byteOffset":3840,"byteLength":768,"target":34962,"byteStride":8},{"buffer":0,"byteOffset":4608,"byteLength":768,"target":34962,"byteStride":8},{"buffer":0,"byteOffset":5376,"byteLength":576,"target":34963}],"buffers":[{"byteLength":5952,"uri":"data:application/octet-stream;base64,"}],"accessors":[{"bufferView":0,"componentType":5126,"count":96,"max":[-0.03804223984479904,0.034834910184144974,0.14848878979682922],"min":[-0.0715554878115654,0.03287791833281517,0.10464339703321457],"type":"VEC3"},{"bufferView":1,"componentType":5126,"count":96,"max":[1,0,0.00033171521499753],"min":[-1,-1,0],"type":"VEC3"},{"bufferView":2,"componentType":5126,"count":96,"max":[0,0,-1,1],"min":[0,0,-1,1],"type":"VEC4"},{"bufferView":3,"componentType":5126,"count":96,"max":[0.5959247946739197,0.9866222143173218],"min":[0.03776148706674576,0.01337782759219408],"type":"VEC2"},{"bufferView":4,"componentType":5126,"count":96,"max":[0.0986328199505806,0.4813833236694336],"min":[3.031101758477206e-11,0.3871578872203827],"type":"VEC2"},{"bufferView":5,"componentType":5125,"count":144,"max":[95],"min":[0],"type":"SCALAR"}],"materials":[{"pbrMetallicRoughness":{"metallicFactor":0,"roughnessFactor":0.9},"extensions":{"KHR_materials_unlit":{}}}],"meshes":[{"primitives":[{"mode":4,"attributes":{"POSITION":0,"NORMAL":1,"TANGENT":2,"TEXCOORD_0":3,"TEXCOORD_1":4},"indices":5,"material":0}]}],"extensionsUsed":["KHR_materials_unlit"]}