{"asset":{"version":"2.0","generator":"GLTFExporter"},"scenes":[{"nodes":[0],"name":"AuxScene"}],"scene":0,"nodes":[{"mesh":0}],"bufferViews":[{"buffer":0,"byteOffset":0,"byteLength":960,"target":34962,"byteStride":12},{"buffer":0,"byteOffset":960,"byteLength":960,"target":34962,"byteStride":12},{"buffer":0,"byteOffset":1920,"byteLength":1280,"target":34962,"byteStride":16},{"buffer":0,"byteOffset":3200,"byteLength":640,"target":34962,"byteStride":8},{"buffer":0,"byteOffset":3840,"byteLength":640,"target":34962,"byteStride":8},{"buffer":0,"byteOffset":4480,"byteLength":576,"target":34963}],"buffers":[{"byteLength":5056,"uri":"data:application/octet-stream;base64,"}],"accessors":[{"bufferView":0,"componentType":5126,"count":80,"max":[-3.76452374458313,1.9602214097976685,-2.3721418380737305],"min":[-5.317223072052002,1.1585224866867065,-2.6658575534820557],"type":"VEC3"},{"bufferView":1,"componentType":5126,"count":80,"max":[0.999999463558197,0.999999463558197,1],"min":[-0.999999463558197,-0.999999463558197,-5.066394237474015e-7],"type":"VEC3"},{"bufferView":2,"componentType":5126,"count":80,"max":[0.999999463558197,0.0010299681453034282,1,1],"min":[-0.999999463558197,-0.0010299681453034282,-5.066394237474015e-7,1],"type":"VEC4"},{"bufferView":3,"componentType":5126,"count":80,"max":[0.9686394929885864,0.9568418264389038],"min":[0.04336252808570862,0.0596935972571373],"type":"VEC2"},{"bufferView":4,"componentType":5126,"count":80,"max":[0.2998046875,0.830668568611145],"min":[0.1923828125,0.7241396903991699],"type":"VEC2"},{"bufferView":5,"componentType":5125,"count":144,"max":[79],"min":[0],"type":"SCALAR"}],"materials":[{"pbrMetallicRoughness":{"metallicFactor":0,"roughnessFactor":0.9},"extensions":{"KHR_materials_unlit":{}}}],"meshes":[{"primitives":[{"mode":4,"attributes":{"POSITION":0,"NORMAL":1,"TANGENT":2,"TEXCOORD_0":3,"TEXCOORD_1":4},"indices":5,"material":0}]}],"extensionsUsed":["KHR_materials_unlit"]}